<?xml version="1.0" encoding="UTF-8"?> <svg xmlns="http://www.w3.org/2000/svg" width="847" height="206" viewBox="0 0 847 206" fill="none"><path d="M103.6 44.6C103.6 48.7333 101.4 54.0667 97 60.6C92.7333 67 87.5333 72.8667 81.4 78.2C79 80.3333 76.4 82.4667 73.6 84.6C70.9333 86.6 68.0667 88.6667 65 90.8C60.4667 94 53.2 98.3333 43.2 103.8C42.6667 104.333 42.0667 105.067 41.4 106C40.7333 106.933 40.1333 107.8 39.6 108.6C40.4 109 41.2667 109.6 42.2 110.4C43.2667 111.2 44.2 112.133 45 113.2C45.8 114.133 46.4667 115.133 47 116.2C47.6667 117.267 48 118.2 48 119C48 121.533 47.7333 123.667 47.2 125.4C46.8 127.133 46 129.267 44.8 131.8C45.2 131.933 46.0667 132 47.4 132C48.6 132 50.3333 131.8 52.6 131.4C53.6667 131.133 54.6667 130.867 55.6 130.6C56.6667 130.333 57.8 130 59 129.6C60.2 129.2 61.6 128.667 63.2 128C64.9333 127.333 67 126.4 69.4 125.2C71.8 124 73.2667 123.4 73.8 123.4C74.4667 123.267 75.1333 123.533 75.8 124.2C76.4667 124.733 76.8 125.6 76.8 126.8C76.8 128.533 75.1333 130.467 71.8 132.6C68.4667 134.6 64.6667 136.267 60.4 137.6C57.6 138.533 52.9333 139.733 46.4 141.2C41.3333 142.4 38.5333 143 38 143C34.9333 145.933 31.8667 148.667 28.8 151.2C25.8667 153.733 23 155.933 20.2 157.8C17.5333 159.667 15.1333 161.133 13 162.2C10.8667 163.267 9.2 163.8 8 163.8C5.6 163.8 3.66667 163.067 2.2 161.6C0.733332 160.133 -1.13249e-06 158.467 -1.13249e-06 156.6C-1.13249e-06 154.733 0.666666 152.4 2 149.6C2.13333 149.333 2.6 148.467 3.4 147C4.06667 145.533 5.13333 143.467 6.6 140.8C9.13333 135.6 11.5333 131.533 13.8 128.6C14.0667 127 14.6667 125 15.6 122.6C16.5333 120.067 17.3333 118.2 18 117C18.4 116.067 19.0667 115.133 20 114.2C20.9333 113.133 21.9333 112.133 23 111.2C24.0667 110.267 25.0667 109.467 26 108.8C26.9333 108 27.6667 107.4 28.2 107C30.8667 103.533 33.5333 100.067 36.2 96.6C38.8667 93 41.6 89.4 44.4 85.8C48.2667 80.8667 51.9333 76.2 55.4 71.8C59 67.4 62.5333 63.2 66 59.2C72 52.2667 77.6667 46.8667 83 43C88.3333 39 92.4 37 95.2 37C96 37 96.8667 37.2667 97.8 37.8C98.7333 38.3333 99.6 39 100.4 39.8C101.333 40.4667 102.067 41.2667 102.6 42.2C103.267 43 103.6 43.8 103.6 44.6ZM93.2 50.6C93.7333 48.8667 93.4 47.8 92.2 47.4C90.8667 47 87.9333 49 83.4 53.4C81.1333 55.5333 79 57.6667 77 59.8C75.1333 61.9333 73.3333 64.0667 71.6 66.2C70.6667 67.4 69.4667 68.8667 68 70.6C66.6667 72.2 65.0667 74.0667 63.2 76.2C59.7333 80.0667 57.0667 83.1333 55.2 85.4C53.3333 87.6667 52.2667 89.1333 52 89.8C55.2 88.2 59.2667 85.5333 64.2 81.8C70.4667 77 75.4667 72.7333 79.2 69C80.8 67.4 82.4 65.7333 84 64C85.6 62.1333 87.0667 60.3333 88.4 58.6C89.7333 56.8667 90.8 55.3333 91.6 54C92.4 52.5333 92.9333 51.4 93.2 50.6ZM38.6 121C38.6 118.733 37.3333 117.6 34.8 117.6C31.7333 117.6 29.1333 119.6 27 123.6C26.3333 124.933 25.8 126.067 25.4 127C25 127.8 24.6667 128.467 24.4 129C25.6 130.067 27 131.067 28.6 132C30.2 132.8 31.8 133.2 33.4 133.2L36.4 128.2C37.8667 125.533 38.6 123.133 38.6 121ZM17.6 138L13.2 146C11.3333 149.067 10.5333 150.8 10.8 151.2C11.2 152.267 11.6 152.8 12 152.8C13.6 152.8 15.8667 151.533 18.8 149C21.8667 146.6 24.4667 144.067 26.6 141.4L17.6 138ZM171.869 125.8C171.869 126.867 169.335 129.133 164.269 132.6C161.735 134.333 159.135 135.933 156.469 137.4C153.802 138.867 151.135 140.267 148.469 141.6C142.869 144.133 138.069 146.067 134.069 147.4C130.202 148.733 126.535 149.4 123.069 149.4C117.869 149.4 114.202 148.2 112.069 145.8C110.869 144.6 109.535 142 108.069 138L87.0688 151.8C79.8687 155.4 73.4021 157.2 67.6687 157.2C64.6021 157.2 62.4687 156.267 61.2687 154.4C60.0687 152.4 59.4687 150.067 59.4687 147.4C59.4687 143.133 62.1354 137.533 67.4687 130.6C69.6021 127.933 72.0687 125 74.8687 121.8C77.6688 118.467 80.9354 114.933 84.6687 111.2C89.2021 106.667 94.2021 102.067 99.6688 97.4C105.135 92.7333 108.469 90.4 109.669 90.4C111.535 90.4 112.802 90.9333 113.469 92C114.269 92.9333 114.669 94.2 114.669 95.8C114.669 97.2667 111.269 100.667 104.469 106C101.802 108.267 99.5354 110.133 97.6687 111.6C95.8021 113.067 94.4021 114.267 93.4687 115.2C91.2021 117.467 88.8688 119.867 86.4688 122.4C84.2021 124.933 81.8021 127.733 79.2687 130.8C73.1354 138.267 70.0021 143 69.8687 145C69.4687 146.867 70.1354 147.8 71.8687 147.8C75.2021 147.8 81.4021 144.867 90.4687 139C94.2021 136.467 98.2021 133.6 102.469 130.4C106.735 127.2 111.335 123.6 116.269 119.6L137.469 101.2L146.869 92.2C152.735 86.7333 156.135 84 157.069 84C158.802 84 160.135 84.8667 161.069 86.6C162.135 88.2 162.669 89.9333 162.669 91.8C162.669 93.2667 161.602 94.8667 159.469 96.6C156.002 99.2667 152.735 101.8 149.669 104.2C146.602 106.6 143.735 108.933 141.069 111.2C138.802 113.067 136.602 114.933 134.469 116.8C132.335 118.667 130.202 120.533 128.069 122.4C122.335 127.733 119.469 132.067 119.469 135.4C119.335 136.867 119.669 138.067 120.469 139C121.269 139.933 122.069 140.4 122.869 140.4C125.802 140.4 128.735 139.933 131.669 139L141.869 135.4C145.469 134.067 149.602 132.133 154.269 129.6C158.935 126.933 163.535 124.267 168.069 121.6C170.602 121.6 171.869 123 171.869 125.8ZM243.652 125.4C243.652 126.867 241.785 128.4 238.052 130L222.852 136.6C218.985 138.467 214.185 141.267 208.452 145C204.718 147.267 201.652 149.133 199.252 150.6C196.852 152.067 195.118 153.133 194.052 153.8C189.785 158.067 184.785 163.267 179.052 169.4C176.252 172.6 173.785 175.467 171.652 178C169.652 180.533 167.918 182.733 166.452 184.6C162.852 189.133 159.185 194 155.452 199.2C151.585 203.6 148.452 205.8 146.052 205.8C143.652 205.533 141.718 204.667 140.252 203.2C138.785 201.867 138.052 200.067 138.052 197.8C138.052 196.733 138.518 195.4 139.452 193.8C140.252 192.2 141.385 190.467 142.852 188.6C144.185 186.867 145.718 185 147.452 183C149.185 181.133 150.985 179.4 152.852 177.8L175.652 157C177.518 154.6 179.118 152.4 180.452 150.4C181.918 148.4 182.985 146.6 183.652 145C177.785 149.267 172.052 151.4 166.452 151.4C162.718 151.4 159.718 150.2 157.452 147.8C155.185 145.4 154.052 142.733 154.052 139.8C154.052 136.467 155.385 132.467 158.052 127.8C158.985 126.2 160.518 124.333 162.652 122.2L167.652 117.4C169.785 114.333 171.918 111.467 174.052 108.8C176.318 106.133 179.252 103.133 182.852 99.8C184.852 97.9333 187.585 96.1333 191.052 94.4C194.518 92.5333 197.785 91.2667 200.852 90.6C202.718 89.2667 204.318 88.2 205.652 87.4C207.118 86.6 208.185 86 208.852 85.6C212.452 83.6 215.385 82.6 217.652 82.6C220.185 82.6 222.185 83.9333 223.652 86.6C225.252 89.2667 226.052 92.4667 226.052 96.2C226.052 99.8 224.785 103.8 222.252 108.2C219.718 112.467 216.318 117 212.052 121.8C205.785 128.467 200.852 133.133 197.252 135.8C197.252 137.533 197.518 139 198.052 140.2L220.452 128.6C224.718 126.6 228.652 124.933 232.252 123.6C235.985 122.133 238.585 121.4 240.052 121.4C242.452 121.4 243.652 122.733 243.652 125.4ZM216.452 96.2C216.452 95.5333 216.185 94.8667 215.652 94.2C215.252 93.4 214.785 93.0667 214.252 93.2C213.718 93.3333 212.852 93.7333 211.652 94.4C210.585 94.9333 209.185 95.8667 207.452 97.2C206.385 98 205.318 98.7333 204.252 99.4C203.318 100.067 202.318 100.733 201.252 101.4L200.452 105C200.052 105.4 197.852 107.067 193.852 110C190.785 112.267 188.585 114.333 187.252 116.2C184.185 120.467 182.318 124.2 181.652 127.4C181.518 128.733 181.718 130 182.252 131.2C182.785 132.4 183.518 133.4 184.452 134.2C185.385 133.667 186.385 133 187.452 132.2C188.652 131.267 189.985 130.2 191.452 129C192.918 127.667 194.652 126 196.652 124C198.785 122 201.252 119.533 204.052 116.6C206.985 113.8 209.718 110.4 212.252 106.4C215.052 102.267 216.452 98.8667 216.452 96.2ZM178.052 138.6C177.518 137.933 176.785 137 175.852 135.8C175.052 134.467 174.585 133.667 174.452 133.4C173.118 130.867 172.452 128.6 172.452 126.6L166.052 132.6C165.252 133.933 164.718 135.267 164.452 136.6C164.318 137.933 164.318 139 164.452 139.8C164.585 141.667 165.385 142.733 166.852 143C167.385 143.133 168.118 143.133 169.052 143C170.118 142.733 171.185 142.4 172.252 142C173.318 141.6 174.385 141.133 175.452 140.6C176.518 139.933 177.385 139.267 178.052 138.6ZM297.652 130.2C297.652 131.8 294.318 134.933 287.652 139.6C284.318 141.867 281.118 143.933 278.052 145.8C274.985 147.667 272.118 149.267 269.452 150.6C264.252 153.133 259.985 154.8 256.652 155.6C253.718 156.533 249.918 157 245.252 157C240.052 157 236.185 155.133 233.652 151.4C231.785 148.467 230.852 145.267 230.852 141.8C230.852 137.267 231.852 132.333 233.852 127C235.985 121.533 239.518 115.4 244.452 108.6C248.318 103.267 253.052 98.4667 258.652 94.2C265.318 89.1333 271.252 86.6 276.452 86.6C278.052 86.6 279.518 87.2667 280.852 88.6C282.185 89.9333 282.852 91.5333 282.852 93.4C282.852 98.6 280.918 104.133 277.052 110C274.785 113.333 271.252 117.533 266.452 122.6C264.585 124.467 262.252 126.467 259.452 128.6C256.785 130.733 253.585 133 249.852 135.4L240.852 141C240.852 142.6 241.385 144.133 242.452 145.6C243.518 147.067 244.718 147.8 246.052 147.8C249.652 147.8 253.652 147 258.052 145.4C260.052 144.6 262.785 143.467 266.252 142C269.718 140.4 274.252 137.867 279.852 134.4C289.585 128.4 294.585 125.4 294.852 125.4C295.785 125.133 296.518 125.6 297.052 126.8C297.585 127.867 297.785 129 297.652 130.2ZM274.052 98.2C274.185 96.8667 273.652 96.2 272.452 96.2C270.852 96.2 268.318 97.6667 264.852 100.6C261.385 103.4 258.185 106.4 255.252 109.6C252.452 112.8 249.918 116.2 247.652 119.8C247.385 120.2 246.785 121.2 245.852 122.8C245.052 124.267 243.918 126.333 242.452 129C245.252 128.2 248.118 126.733 251.052 124.6C254.118 122.333 257.185 119.667 260.252 116.6C261.852 115.133 263.385 113.533 264.852 111.8C266.452 109.933 267.985 108 269.452 106C272.252 102.267 273.785 99.6667 274.052 98.2ZM413.702 129.4C413.702 130.6 411.368 132.733 406.702 135.8C404.435 137.267 402.102 138.667 399.702 140C397.435 141.333 395.035 142.533 392.502 143.6C390.102 144.667 387.635 145.667 385.102 146.6C382.568 147.533 380.102 148.333 377.702 149C375.302 149.667 373.035 150.2 370.902 150.6C368.902 151 367.235 151.2 365.902 151.2C358.035 151.2 354.102 147.267 354.102 139.4C354.102 136.733 355.568 132.667 358.502 127.2C359.568 125.333 360.568 123.4 361.502 121.4C362.568 119.4 363.635 117.467 364.702 115.6C361.635 117.333 358.702 119.267 355.902 121.4C353.102 123.4 349.968 126 346.502 129.2L333.502 141.2C329.102 145.2 326.168 147.2 324.702 147.2C323.235 147.2 321.902 146.533 320.702 145.2C319.502 143.867 318.902 142.333 318.902 140.6C318.902 139.133 321.102 135.867 325.502 130.8C326.168 130.133 327.035 129.2 328.102 128C329.168 126.8 330.568 125.333 332.302 123.6C335.635 120 338.502 116.467 340.902 113C343.435 109.533 345.102 106.533 345.902 104C341.635 106.133 336.702 109.267 331.102 113.4C327.235 116.067 323.502 118.933 319.902 122C316.435 124.933 313.035 127.933 309.702 131C308.235 132.467 306.368 134.333 304.102 136.6C301.968 138.733 299.435 141.333 296.502 144.4C286.235 155.333 280.168 160.667 278.302 160.4C276.968 160.4 275.835 159.8 274.902 158.6C273.835 157.533 273.302 156.333 273.302 155C273.302 153.933 275.568 150.933 280.102 146C281.168 144.8 282.302 143.6 283.502 142.4C284.702 141.2 285.835 139.933 286.902 138.6C293.302 131.667 297.702 126.667 300.102 123.6C302.368 120.933 304.435 118.4 306.302 116C308.302 113.467 310.102 111 311.702 108.6C313.835 105.667 316.635 100.533 320.102 93.2C322.368 88.8 324.168 86.6667 325.502 86.8C326.968 86.8 328.168 87.2 329.102 88C330.168 88.6667 330.635 89.9333 330.502 91.8C330.502 92.4667 330.302 93.4 329.902 94.6C329.635 95.8 329.168 97.1333 328.502 98.6C327.968 100.067 327.368 101.6 326.702 103.2C326.035 104.8 325.302 106.2 324.502 107.4L340.102 97.4L349.702 91.4C353.035 89.2667 355.168 88.2 356.102 88.2C357.702 88.2 359.035 89.0667 360.102 90.8C361.168 92.5333 361.702 94.7333 361.702 97.4C361.702 99 361.168 101.4 360.102 104.6C359.168 107.4 358.702 109 358.702 109.4L366.302 104.2C367.368 103.4 368.435 102.6 369.502 101.8C370.568 101 371.568 100.133 372.502 99.2C375.035 96.6667 377.835 94.2667 380.902 92C384.368 89.3333 386.702 88.1333 387.902 88.4C391.502 89.2 393.302 92.0667 393.302 97C393.302 97.9333 392.035 99.7333 389.502 102.4C387.235 104.933 385.235 107.133 383.502 109C381.902 110.733 380.635 112.133 379.702 113.2C378.235 115.067 376.702 117.067 375.102 119.2C373.502 121.2 371.968 123.333 370.502 125.6C366.502 131.867 364.502 136.333 364.502 139C364.502 141.4 365.702 142.6 368.102 142.6C370.502 142.6 373.902 141.867 378.302 140.4C379.635 139.867 381.235 139.267 383.102 138.6C384.968 137.933 387.035 137.067 389.302 136C391.568 134.933 393.835 133.867 396.102 132.8C398.368 131.733 400.568 130.533 402.702 129.2C407.235 126.533 409.768 125.2 410.302 125.2C412.568 125.2 413.702 126.6 413.702 129.4ZM448.759 90.6C448.759 92.3333 445.693 95.6667 439.559 100.6L428.559 109.4C427.493 110.467 426.426 111.467 425.359 112.4C424.426 113.2 423.626 114 422.959 114.8L417.759 121C416.693 122.6 415.493 125 414.159 128.2C413.493 129.667 412.959 130.933 412.559 132C412.293 133.067 412.093 133.867 411.959 134.4C413.159 133.6 414.359 132.8 415.559 132C416.759 131.2 418.159 130.467 419.759 129.8C421.226 129.133 422.426 128.6 423.359 128.2C424.293 127.667 425.026 127.333 425.559 127.2C427.559 126.533 429.359 126.2 430.959 126.2C432.826 126.2 434.493 127.067 435.959 128.8C437.426 130.533 438.159 132.333 438.159 134.2C438.159 137.533 435.426 141.8 429.959 147C423.559 153 417.093 156 410.559 156C406.159 156 403.293 154.733 401.959 152.2C400.759 149.533 400.159 145.8 400.159 141C400.159 137 402.226 131.133 406.359 123.4C410.493 115.8 415.626 109 421.759 103C426.693 97.9333 431.159 93.7333 435.159 90.4C439.293 86.9333 442.226 85.2 443.959 85.2C445.826 85.2 447.093 85.6667 447.759 86.6C448.426 87.5333 448.759 88.8667 448.759 90.6ZM429.159 135.6C428.493 134.933 428.093 134.6 427.959 134.6C427.293 134.733 426.559 135 425.759 135.4C425.093 135.667 423.493 136.467 420.959 137.8C420.293 138.067 419.493 138.467 418.559 139C417.759 139.533 416.826 140.2 415.759 141L411.359 144.2C411.893 145.8 412.559 146.6 413.359 146.6C414.959 146.6 417.826 145.133 421.959 142.2C424.093 140.733 425.759 139.467 426.959 138.4C428.293 137.2 429.026 136.267 429.159 135.6ZM615.709 44.6C615.709 48.7333 613.509 54.0667 609.109 60.6C604.843 67 599.643 72.8667 593.509 78.2C591.109 80.3333 588.509 82.4667 585.709 84.6C583.043 86.6 580.176 88.6667 577.109 90.8C572.576 94 565.309 98.3333 555.309 103.8C554.776 104.333 554.176 105.067 553.509 106C552.843 106.933 552.243 107.8 551.709 108.6C552.509 109 553.376 109.6 554.309 110.4C555.376 111.2 556.309 112.133 557.109 113.2C557.909 114.133 558.576 115.133 559.109 116.2C559.776 117.267 560.109 118.2 560.109 119C560.109 121.533 559.843 123.667 559.309 125.4C558.909 127.133 558.109 129.267 556.909 131.8C557.309 131.933 558.176 132 559.509 132C560.709 132 562.443 131.8 564.709 131.4C565.776 131.133 566.776 130.867 567.709 130.6C568.776 130.333 569.909 130 571.109 129.6C572.309 129.2 573.709 128.667 575.309 128C577.043 127.333 579.109 126.4 581.509 125.2C583.909 124 585.376 123.4 585.909 123.4C586.576 123.267 587.243 123.533 587.909 124.2C588.576 124.733 588.909 125.6 588.909 126.8C588.909 128.533 587.243 130.467 583.909 132.6C580.576 134.6 576.776 136.267 572.509 137.6C569.709 138.533 565.043 139.733 558.509 141.2C553.443 142.4 550.643 143 550.109 143C547.043 145.933 543.976 148.667 540.909 151.2C537.976 153.733 535.109 155.933 532.309 157.8C529.643 159.667 527.243 161.133 525.109 162.2C522.976 163.267 521.309 163.8 520.109 163.8C517.709 163.8 515.776 163.067 514.309 161.6C512.843 160.133 512.109 158.467 512.109 156.6C512.109 154.733 512.776 152.4 514.109 149.6C514.243 149.333 514.709 148.467 515.509 147C516.176 145.533 517.243 143.467 518.709 140.8C521.243 135.6 523.643 131.533 525.909 128.6C526.176 127 526.776 125 527.709 122.6C528.643 120.067 529.443 118.2 530.109 117C530.509 116.067 531.176 115.133 532.109 114.2C533.043 113.133 534.043 112.133 535.109 111.2C536.176 110.267 537.176 109.467 538.109 108.8C539.043 108 539.776 107.4 540.309 107C542.976 103.533 545.643 100.067 548.309 96.6C550.976 93 553.709 89.4 556.509 85.8C560.376 80.8667 564.043 76.2 567.509 71.8C571.109 67.4 574.643 63.2 578.109 59.2C584.109 52.2667 589.776 46.8667 595.109 43C600.443 39 604.509 37 607.309 37C608.109 37 608.976 37.2667 609.909 37.8C610.843 38.3333 611.709 39 612.509 39.8C613.443 40.4667 614.176 41.2667 614.709 42.2C615.376 43 615.709 43.8 615.709 44.6ZM605.309 50.6C605.843 48.8667 605.509 47.8 604.309 47.4C602.976 47 600.043 49 595.509 53.4C593.243 55.5333 591.109 57.6667 589.109 59.8C587.243 61.9333 585.443 64.0667 583.709 66.2C582.776 67.4 581.576 68.8667 580.109 70.6C578.776 72.2 577.176 74.0667 575.309 76.2C571.843 80.0667 569.176 83.1333 567.309 85.4C565.443 87.6667 564.376 89.1333 564.109 89.8C567.309 88.2 571.376 85.5333 576.309 81.8C582.576 77 587.576 72.7333 591.309 69C592.909 67.4 594.509 65.7333 596.109 64C597.709 62.1333 599.176 60.3333 600.509 58.6C601.843 56.8667 602.909 55.3333 603.709 54C604.509 52.5333 605.043 51.4 605.309 50.6ZM550.709 121C550.709 118.733 549.443 117.6 546.909 117.6C543.843 117.6 541.243 119.6 539.109 123.6C538.443 124.933 537.909 126.067 537.509 127C537.109 127.8 536.776 128.467 536.509 129C537.709 130.067 539.109 131.067 540.709 132C542.309 132.8 543.909 133.2 545.509 133.2L548.509 128.2C549.976 125.533 550.709 123.133 550.709 121ZM529.709 138L525.309 146C523.443 149.067 522.643 150.8 522.909 151.2C523.309 152.267 523.709 152.8 524.109 152.8C525.709 152.8 527.976 151.533 530.909 149C533.976 146.6 536.576 144.067 538.709 141.4L529.709 138ZM674.778 131.8C674.778 133 671.578 135.8 665.178 140.2C658.645 144.467 652.778 147.667 647.578 149.8C643.445 151.533 639.311 153 635.178 154.2C631.045 155.267 627.578 155.8 624.778 155.8C621.578 155.8 618.578 155 615.778 153.4C613.111 151.8 610.778 149.667 608.778 147L596.178 154.8C591.645 157.067 587.311 158.2 583.178 158.2C579.178 158.2 576.178 157.267 574.178 155.4C572.178 153.533 571.178 151.4 571.178 149C571.178 145.8 572.378 141.8 574.778 137C577.311 132.2 580.778 127.133 585.178 121.8C587.711 118.6 590.178 115.867 592.578 113.6C594.978 111.333 597.711 109.267 600.778 107.4C606.911 102.2 612.911 98 618.778 94.8C625.178 91.2 630.378 89.4 634.378 89.4C637.978 89.4 641.045 90.1333 643.578 91.6C646.778 93.6 648.378 96.6 648.378 100.6C648.378 104.2 647.245 108 644.978 112C642.711 115.867 639.578 119.667 635.578 123.4C635.045 123.933 634.178 124.733 632.978 125.8C631.778 126.733 630.245 128 628.378 129.6C623.311 133.867 620.778 137.4 620.778 140.2C620.778 141.533 621.378 142.867 622.578 144.2C623.778 145.533 624.911 146.2 625.978 146.2C631.445 146.2 638.111 144.6 645.978 141.4C648.111 140.467 650.711 139.2 653.778 137.6C656.978 135.867 660.645 133.667 664.778 131C668.111 128.867 670.111 127.8 670.778 127.8C671.711 127.8 672.578 128.2 673.378 129C674.178 129.8 674.645 130.733 674.778 131.8ZM639.578 101.4C639.578 100.733 639.178 100.067 638.378 99.4C637.578 98.7333 636.645 98.3333 635.578 98.2C632.778 97.8 628.445 99.1333 622.578 102.2C617.778 104.733 613.845 107.4 610.778 110.2C609.845 111.133 608.911 112.333 607.978 113.8C607.045 115.133 606.378 116.067 605.978 116.6C605.445 117.8 605.045 118.733 604.778 119.4C604.511 119.933 604.111 120.6 603.578 121.4C602.511 122.867 601.178 124.467 599.578 126.2C598.111 127.8 596.911 129 595.978 129.8C596.778 131 597.311 131.8 597.578 132.2C597.978 132.467 598.911 133 600.378 133.8L607.778 131.4C610.845 130.333 613.978 128.733 617.178 126.6C618.245 125.933 619.245 125.2 620.178 124.4C621.245 123.6 622.245 122.867 623.178 122.2C624.111 121.4 625.178 120.467 626.378 119.4C627.711 118.2 628.978 116.933 630.178 115.6C631.378 114.267 632.511 113 633.578 111.8C634.778 110.467 635.778 109.2 636.578 108C638.578 105.067 639.578 102.867 639.578 101.4ZM590.778 140.2L587.578 137C585.711 138.733 584.245 140.467 583.178 142.2C582.111 143.8 581.578 145.533 581.578 147.4C581.578 148.333 582.378 148.867 583.978 149C585.711 149.133 587.645 148.733 589.778 147.8C592.045 146.733 593.845 145.4 595.178 143.8L590.778 140.2ZM744.417 129C744.417 130.067 740.551 132.8 732.817 137.2C728.951 139.467 725.151 141.533 721.417 143.4C717.684 145.133 714.084 146.733 710.617 148.2C703.417 151 696.951 153.267 691.217 155C685.617 156.733 680.884 157.6 677.017 157.6C673.017 157.6 669.884 156.667 667.617 154.8C665.484 152.8 664.417 150.2 664.417 147C664.417 143.133 666.417 137.267 670.417 129.4C674.551 121.4 678.817 115.2 683.217 110.8L693.617 100.2C697.617 96.2 700.151 94.0667 701.217 93.8H704.817C706.417 92.8667 708.551 92 711.217 91.2C713.884 90.2667 715.884 89.8 717.217 89.8C719.351 89.8 721.484 90.5333 723.617 92C726.284 94 727.617 96.6 727.617 99.8C727.617 107.133 725.017 112.867 719.817 117C715.284 120.733 710.017 122.6 704.017 122.6C701.351 122.6 698.617 122.267 695.817 121.6C693.017 120.8 691.151 119.867 690.217 118.8L684.417 124.4C682.151 126.667 680.284 129.2 678.817 132C677.484 134.8 676.417 137.6 675.617 140.4C675.484 140.933 675.351 141.533 675.217 142.2C675.084 142.867 674.951 143.667 674.817 144.6C674.684 145.533 675.217 146.6 676.417 147.8C677.217 148.6 677.884 149 678.417 149C681.884 149 686.951 147.8 693.617 145.4C695.484 144.733 697.351 144.067 699.217 143.4C701.084 142.6 703.084 141.867 705.217 141.2C707.351 140.4 709.751 139.4 712.417 138.2C715.084 136.867 718.084 135.333 721.417 133.6L741.017 123.2C743.284 122.933 744.417 124.867 744.417 129ZM717.617 102.6C717.217 101.533 716.751 100.933 716.217 100.8C715.284 100.533 714.284 100.6 713.217 101C712.284 101.267 710.684 101.933 708.417 103C706.284 103.933 704.351 105.2 702.617 106.8C701.017 108.4 699.751 109.933 698.817 111.4C701.217 113.133 703.551 114 705.817 114C707.551 114 708.951 113.667 710.017 113C711.217 112.333 712.551 111.133 714.017 109.4C716.951 106.2 718.151 103.933 717.617 102.6ZM845.656 7.79999C845.523 9.39999 843.656 12.2 840.056 16.2C838.59 17.8 837.123 19.4 835.656 21C834.19 22.6 832.723 24.1333 831.256 25.6C828.19 29.0667 825.523 32.2 823.256 35C820.99 37.6667 819.056 40 817.456 42C814.923 45.0667 812.656 47.9333 810.656 50.6C808.79 53.1333 807.123 55.4667 805.656 57.6L781.256 93.2C778.723 96.9333 776.59 100.067 774.856 102.6C773.123 105 771.723 106.933 770.656 108.4C766.923 113.067 764.256 115.333 762.656 115.2C761.456 115.067 760.256 114.667 759.056 114C757.99 113.2 757.656 112.333 758.056 111.4C758.59 108.867 763.39 101.2 772.456 88.4L796.456 53.6C798.456 50.6667 801.123 46.9333 804.456 42.4C807.79 37.8667 811.79 32.4 816.456 26L827.656 10.8L832.456 3.19999C833.39 2.26666 834.323 1.53333 835.256 0.999991C836.323 0.333325 837.39 -8.10623e-06 838.456 -8.10623e-06C838.59 -8.10623e-06 839.056 0.133324 839.856 0.399987C840.79 0.66665 841.723 1.13332 842.656 1.79999C843.723 2.33332 844.59 3.13332 845.256 4.19999C845.923 5.13332 846.056 6.33332 845.656 7.79999ZM749.056 149.8C749.056 150.867 748.79 152 748.256 153.2C747.723 154.4 746.99 155.533 746.056 156.6C745.123 157.667 744.056 158.533 742.856 159.2C741.79 159.867 740.656 160.2 739.456 160.2C738.256 160.2 737.056 159.867 735.856 159.2C734.79 158.533 733.856 157.667 733.056 156.6C732.256 155.667 731.59 154.533 731.056 153.2C730.656 151.867 730.59 150.6 730.856 149.4C731.79 144.467 734.656 142 739.456 142C741.99 142 744.19 142.733 746.056 144.2C748.056 145.533 749.056 147.4 749.056 149.8Z" fill="#091E53"></path></svg> 