<?xml version="1.0" encoding="UTF-8"?> <svg xmlns="http://www.w3.org/2000/svg" width="61" height="9" viewBox="0 0 61 9" fill="none"><path d="M4.836 1.164C4.836 1.252 4.752 1.404 4.584 1.62C4.48 1.756 4.36 1.904 4.224 2.064C4.088 2.224 3.936 2.38 3.768 2.532C3.704 2.596 3.62 2.668 3.516 2.748C3.42 2.82 3.308 2.9 3.18 2.988C3.068 3.148 2.964 3.3 2.868 3.444C2.78 3.58 2.696 3.708 2.616 3.828C2.504 3.988 2.392 4.16 2.28 4.344C2.176 4.52 2.068 4.708 1.956 4.908C1.924 4.964 1.76 5.324 1.464 5.988C1.264 6.452 1.092 6.692 0.947999 6.708C0.851999 6.708 0.763999 6.684 0.683999 6.636C0.611999 6.58 0.575999 6.516 0.575999 6.444C0.575999 6.372 0.643999 6.188 0.779999 5.892C0.851999 5.74 0.923999 5.604 0.995999 5.484C1.068 5.364 1.14 5.252 1.212 5.148C1.252 5.084 1.296 5.004 1.344 4.908C1.4 4.812 1.456 4.696 1.512 4.56L1.764 3.984L0.923999 4.548C0.595999 4.772 0.391999 4.884 0.311999 4.884C0.255999 4.884 0.187999 4.84 0.107999 4.752C0.0359986 4.664 -1.36904e-06 4.58 -1.36904e-06 4.5C-1.36904e-06 4.452 0.0239986 4.408 0.0719986 4.368C0.119999 4.328 0.183999 4.288 0.263999 4.248C0.343999 4.208 0.427999 4.164 0.515999 4.116C0.611999 4.068 0.703999 4.02 0.791999 3.972C1.024 3.852 1.304 3.684 1.632 3.468C1.968 3.252 2.308 3.02 2.652 2.772L3.492 1.716C3.66 1.508 3.792 1.344 3.888 1.224C3.992 1.096 4.064 1.016 4.104 0.984C4.232 0.864 4.356 0.804 4.476 0.804C4.572 0.804 4.656 0.84 4.728 0.912C4.8 0.984 4.836 1.068 4.836 1.164ZM8.66719 1.524C8.66719 1.948 8.37919 2.472 7.80319 3.096C7.72319 3.176 7.61119 3.288 7.46719 3.432C7.32319 3.568 7.14719 3.736 6.93919 3.936C6.93919 3.984 6.93519 4.052 6.92719 4.14C6.92719 4.22 6.92319 4.304 6.91519 4.392C6.90719 4.48 6.89919 4.564 6.89119 4.644C6.89119 4.716 6.89119 4.772 6.89119 4.812C6.89119 4.956 6.77919 5.176 6.55519 5.472C6.47519 5.584 6.38319 5.692 6.27919 5.796C6.17519 5.9 6.05919 6 5.93119 6.096C5.69119 6.296 5.45119 6.448 5.21119 6.552C4.88319 6.696 4.55919 6.768 4.23919 6.768C4.11119 6.768 4.00719 6.724 3.92719 6.636C3.85519 6.54 3.81919 6.42 3.81919 6.276C3.81919 6.156 3.94719 5.956 4.20319 5.676C4.39519 5.468 4.69119 5.184 5.09119 4.824L6.21919 3.756C6.13919 3.556 6.06719 3.364 6.00319 3.18C5.93919 2.996 5.90719 2.868 5.90719 2.796C5.90719 2.62 5.93119 2.444 5.97919 2.268C6.03519 2.084 6.10719 1.944 6.19519 1.848C6.27519 1.656 6.36319 1.504 6.45919 1.392C6.64319 1.176 6.86719 1.004 7.13119 0.876C7.39519 0.748 7.65519 0.684 7.91119 0.684C8.10319 0.684 8.26719 0.748 8.40319 0.876C8.57919 1.028 8.66719 1.244 8.66719 1.524ZM8.03119 1.668C8.02319 1.564 7.98719 1.48 7.92319 1.416C7.85919 1.352 7.79119 1.32 7.71919 1.32C7.59119 1.32 7.46719 1.392 7.34719 1.536C7.29919 1.6 7.26319 1.66 7.23919 1.716C7.27119 1.7 7.33519 1.684 7.43119 1.668C7.52719 1.652 7.60319 1.644 7.65919 1.644C7.72319 1.644 7.78719 1.644 7.85119 1.644C7.92319 1.644 7.98319 1.652 8.03119 1.668ZM7.75519 2.172C7.59519 2.1 7.47519 2.064 7.39519 2.064C7.31519 2.064 7.22719 2.084 7.13119 2.124C7.13119 2.124 7.11119 2.136 7.07119 2.16C7.03919 2.176 6.99919 2.2 6.95119 2.232C6.90319 2.264 6.85919 2.296 6.81919 2.328C6.77919 2.352 6.75119 2.372 6.73519 2.388C6.67119 2.46 6.62719 2.54 6.60319 2.628C6.57919 2.716 6.56719 2.788 6.56719 2.844C6.56719 2.98 6.62319 3.128 6.73519 3.288C6.91119 3.216 7.10719 3.048 7.32319 2.784C7.46719 2.616 7.61119 2.412 7.75519 2.172ZM6.17119 4.836C6.16319 4.812 6.15919 4.732 6.15919 4.596C6.15119 4.612 6.03119 4.712 5.79919 4.896C5.71919 4.96 5.65119 5.012 5.59519 5.052C5.54719 5.092 5.50719 5.128 5.47519 5.16L4.95919 5.604C4.71919 5.836 4.60319 5.972 4.61119 6.012C4.62719 6.076 4.67119 6.112 4.74319 6.12C4.80719 6.136 4.96319 6.072 5.21119 5.928C5.46719 5.784 5.67919 5.628 5.84719 5.46C6.01519 5.292 6.12319 5.084 6.17119 4.836ZM11.1743 3.396C11.1743 3.66 11.0223 3.824 10.7183 3.888C10.5663 3.92 10.4263 3.888 10.2983 3.792C10.1783 3.688 10.1183 3.556 10.1183 3.396C10.1183 3.236 10.1823 3.096 10.3103 2.976C10.4383 2.856 10.5823 2.812 10.7423 2.844C11.0303 2.908 11.1743 3.092 11.1743 3.396ZM10.5263 5.82C10.5263 5.924 10.4743 6.024 10.3703 6.12C10.2743 6.208 10.1663 6.252 10.0463 6.252C9.99834 6.252 9.94234 6.24 9.87834 6.216C9.81434 6.184 9.75434 6.144 9.69834 6.096C9.64234 6.048 9.59434 5.996 9.55434 5.94C9.51434 5.876 9.49434 5.812 9.49434 5.748C9.49434 5.62 9.57834 5.484 9.74634 5.34C9.85034 5.244 9.95834 5.196 10.0703 5.196C10.2223 5.196 10.3343 5.26 10.4063 5.388C10.4863 5.516 10.5263 5.66 10.5263 5.82ZM17.3841 2.028C17.3841 2.252 17.3161 2.544 17.1801 2.904C17.0441 3.256 16.8401 3.628 16.5681 4.02C16.4481 4.188 16.3081 4.368 16.1481 4.56C15.9961 4.744 15.8241 4.932 15.6321 5.124C15.6881 5.172 15.7361 5.224 15.7761 5.28C15.8241 5.336 15.8481 5.396 15.8481 5.46C15.8481 5.572 15.6841 5.712 15.3561 5.88C15.3161 5.904 15.2161 5.952 15.0561 6.024C14.9041 6.096 14.6921 6.188 14.4201 6.3C13.7241 6.604 13.1201 6.756 12.6081 6.756C12.4641 6.756 12.3241 6.708 12.1881 6.612C12.0601 6.516 11.9961 6.396 11.9961 6.252C11.9961 6.108 12.1161 5.82 12.3561 5.388C12.6041 4.956 12.9441 4.452 13.3761 3.876C13.4961 3.708 13.6361 3.496 13.7961 3.24C13.9561 2.976 14.1041 2.728 14.2401 2.496C14.2561 2.472 14.2721 2.432 14.2881 2.376C14.3121 2.32 14.3361 2.264 14.3601 2.208C14.3841 2.144 14.4081 2.084 14.4321 2.028C14.4561 1.972 14.4801 1.932 14.5041 1.908C14.6161 1.78 14.7361 1.664 14.8641 1.56C15.0001 1.456 15.1481 1.364 15.3081 1.284C15.7081 1.084 16.1201 0.984 16.5441 0.984C16.6641 0.984 16.7721 1.016 16.8681 1.08C16.9721 1.136 17.0601 1.212 17.1321 1.308C17.2121 1.404 17.2721 1.516 17.3121 1.644C17.3601 1.764 17.3841 1.892 17.3841 2.028ZM16.7841 2.1C16.8001 1.964 16.7641 1.836 16.6761 1.716C16.5881 1.588 16.4641 1.54 16.3041 1.572C16.1601 1.588 15.9841 1.628 15.7761 1.692C15.5761 1.748 15.4161 1.808 15.2961 1.872C15.3041 1.888 15.3361 1.948 15.3921 2.052C15.4161 2.092 15.4241 2.14 15.4161 2.196C15.4081 2.268 15.3601 2.348 15.2721 2.436C15.1921 2.524 15.1361 2.588 15.1041 2.628L14.4921 3.372C14.2521 3.66 14.0481 3.932 13.8801 4.188C13.7041 4.444 13.5561 4.668 13.4361 4.86C13.3161 5.044 13.2161 5.2 13.1361 5.328C12.9201 5.688 12.8001 5.932 12.7761 6.06C12.7601 6.092 12.7641 6.12 12.7881 6.144C12.8121 6.168 12.8641 6.18 12.9441 6.18C13.1441 6.18 13.5001 6.088 14.0121 5.904C14.5161 5.728 14.8321 5.564 14.9601 5.412C14.9681 5.372 14.9601 5.332 14.9361 5.292C14.9121 5.244 14.9121 5.2 14.9361 5.16C14.9761 5.088 15.1441 4.888 15.4401 4.56C15.8001 4.168 16.0401 3.876 16.1601 3.684C16.5761 3.076 16.7841 2.548 16.7841 2.1ZM22.2591 2.028C22.2591 2.252 22.1911 2.544 22.0551 2.904C21.9191 3.256 21.7151 3.628 21.4431 4.02C21.3231 4.188 21.1831 4.368 21.0231 4.56C20.8711 4.744 20.6991 4.932 20.5071 5.124C20.5631 5.172 20.6111 5.224 20.6511 5.28C20.6991 5.336 20.7231 5.396 20.7231 5.46C20.7231 5.572 20.5591 5.712 20.2311 5.88C20.1911 5.904 20.0911 5.952 19.9311 6.024C19.7791 6.096 19.5671 6.188 19.2951 6.3C18.5991 6.604 17.9951 6.756 17.4831 6.756C17.3391 6.756 17.1991 6.708 17.0631 6.612C16.9351 6.516 16.8711 6.396 16.8711 6.252C16.8711 6.108 16.9911 5.82 17.2311 5.388C17.4791 4.956 17.8191 4.452 18.2511 3.876C18.3711 3.708 18.5111 3.496 18.6711 3.24C18.8311 2.976 18.9791 2.728 19.1151 2.496C19.1311 2.472 19.1471 2.432 19.1631 2.376C19.1871 2.32 19.2111 2.264 19.2351 2.208C19.2591 2.144 19.2831 2.084 19.3071 2.028C19.3311 1.972 19.3551 1.932 19.3791 1.908C19.4911 1.78 19.6111 1.664 19.7391 1.56C19.8751 1.456 20.0231 1.364 20.1831 1.284C20.5831 1.084 20.9951 0.984 21.4191 0.984C21.5391 0.984 21.6471 1.016 21.7431 1.08C21.8471 1.136 21.9351 1.212 22.0071 1.308C22.0871 1.404 22.1471 1.516 22.1871 1.644C22.2351 1.764 22.2591 1.892 22.2591 2.028ZM21.6591 2.1C21.6751 1.964 21.6391 1.836 21.5511 1.716C21.4631 1.588 21.3391 1.54 21.1791 1.572C21.0351 1.588 20.8591 1.628 20.6511 1.692C20.4511 1.748 20.2911 1.808 20.1711 1.872C20.1791 1.888 20.2111 1.948 20.2671 2.052C20.2911 2.092 20.2991 2.14 20.2911 2.196C20.2831 2.268 20.2351 2.348 20.1471 2.436C20.0671 2.524 20.0111 2.588 19.9791 2.628L19.3671 3.372C19.1271 3.66 18.9231 3.932 18.7551 4.188C18.5791 4.444 18.4311 4.668 18.3111 4.86C18.1911 5.044 18.0911 5.2 18.0111 5.328C17.7951 5.688 17.6751 5.932 17.6511 6.06C17.6351 6.092 17.6391 6.12 17.6631 6.144C17.6871 6.168 17.7391 6.18 17.8191 6.18C18.0191 6.18 18.3751 6.088 18.8871 5.904C19.3911 5.728 19.7071 5.564 19.8351 5.412C19.8431 5.372 19.8351 5.332 19.8111 5.292C19.7871 5.244 19.7871 5.2 19.8111 5.16C19.8511 5.088 20.0191 4.888 20.3151 4.56C20.6751 4.168 20.9151 3.876 21.0351 3.684C21.4511 3.076 21.6591 2.548 21.6591 2.1ZM24.0381 5.784C24.0381 5.904 23.9101 6.152 23.6541 6.528C23.4061 6.896 23.1461 7.236 22.8741 7.548C22.6101 7.86 22.3621 8.128 22.1301 8.352C21.8581 8.624 21.6781 8.76 21.5901 8.76C21.4701 8.752 21.4021 8.7 21.3861 8.604C21.3781 8.476 21.5581 8.196 21.9261 7.764C22.1981 7.452 22.3661 7.248 22.4301 7.152L22.8621 6.576C23.0381 6.328 23.1581 6.112 23.2221 5.928C23.2461 5.856 23.2421 5.78 23.2101 5.7C23.1781 5.62 23.1741 5.56 23.1981 5.52C23.2301 5.464 23.2701 5.428 23.3181 5.412C23.3741 5.388 23.4701 5.376 23.6061 5.376C23.7261 5.392 23.8261 5.44 23.9061 5.52C23.9941 5.592 24.0381 5.68 24.0381 5.784ZM36.1074 0.78C36.1074 0.876 36.0874 0.972 36.0474 1.068C36.0074 1.156 35.9554 1.24 35.8914 1.32C35.8354 1.392 35.7674 1.452 35.6874 1.5C35.6154 1.54 35.5434 1.56 35.4714 1.56C35.3994 1.56 35.3394 1.476 35.2914 1.308C35.2834 1.276 35.2994 1.232 35.3394 1.176C35.4674 1.04 35.5314 0.94 35.5314 0.876C35.5314 0.748 35.4274 0.652 35.2194 0.588001C35.0274 0.532 34.8394 0.504 34.6554 0.504C34.4074 0.504 34.1154 0.544 33.7794 0.624C33.4514 0.696 33.1354 0.824 32.8314 1.008C32.5834 1.152 32.3794 1.336 32.2194 1.56C32.0594 1.776 31.9794 2.004 31.9794 2.244C31.9794 2.436 32.0514 2.644 32.1954 2.868C32.2354 2.924 32.2954 3.008 32.3754 3.12C32.4554 3.232 32.5634 3.368 32.6994 3.528C32.7794 3.624 32.8434 3.712 32.8914 3.792C32.9474 3.872 32.9914 3.956 33.0234 4.044C33.0554 4.124 33.0754 4.212 33.0834 4.308C33.0994 4.396 33.1074 4.5 33.1074 4.62C33.1074 4.876 33.0194 5.116 32.8434 5.34C32.6914 5.532 32.4434 5.752 32.0994 6C31.7554 6.248 31.4194 6.452 31.0914 6.612C30.7634 6.764 30.4794 6.84 30.2394 6.84C30.1194 6.84 30.0154 6.784 29.9274 6.672C29.8394 6.552 29.7954 6.444 29.7954 6.348C29.7954 6.164 29.8514 5.956 29.9634 5.724C30.0754 5.492 30.2274 5.24 30.4194 4.968C30.5074 4.848 30.6114 4.712 30.7314 4.56C30.8514 4.408 30.9714 4.264 31.0914 4.128C31.0434 4.024 31.0274 3.924 31.0434 3.828C31.0514 3.78 31.1234 3.7 31.2594 3.588C31.4034 3.476 31.5554 3.36 31.7154 3.24C31.6354 3.08 31.5674 2.908 31.5114 2.724C31.4554 2.532 31.4274 2.356 31.4274 2.196C31.4274 1.436 31.8834 0.852 32.7954 0.444C33.4434 0.148 34.1194 2.38419e-07 34.8234 2.38419e-07C35.1834 2.38419e-07 35.4874 0.0680003 35.7354 0.204C35.9834 0.332 36.1074 0.524 36.1074 0.78ZM32.5794 4.62C32.5794 4.452 32.5634 4.328 32.5314 4.248C32.4994 4.16 32.4434 4.064 32.3634 3.96C32.2274 4 32.0394 4.116 31.7994 4.308C31.7434 4.356 31.6754 4.416 31.5954 4.488C31.5154 4.56 31.4194 4.648 31.3074 4.752C31.0994 4.944 30.8954 5.196 30.6954 5.508C30.4954 5.804 30.3954 6.012 30.3954 6.132L30.4914 6.252C30.6194 6.26 30.8314 6.188 31.1274 6.036C31.3594 5.916 31.5914 5.768 31.8234 5.592C32.0554 5.416 32.2314 5.256 32.3514 5.112C32.5034 4.936 32.5794 4.772 32.5794 4.62ZM39.5265 5.34C39.5265 5.412 39.3345 5.58 38.9505 5.844C38.5585 6.1 38.2065 6.292 37.8945 6.42C37.6465 6.524 37.3985 6.612 37.1505 6.684C36.9025 6.748 36.6945 6.78 36.5265 6.78C36.3345 6.78 36.1545 6.732 35.9865 6.636C35.8265 6.54 35.6865 6.412 35.5665 6.252L34.8105 6.72C34.5385 6.856 34.2785 6.924 34.0305 6.924C33.7905 6.924 33.6105 6.868 33.4905 6.756C33.3705 6.644 33.3105 6.516 33.3105 6.372C33.3105 6.18 33.3825 5.94 33.5265 5.652C33.6785 5.364 33.8865 5.06 34.1505 4.74C34.3025 4.548 34.4505 4.384 34.5945 4.248C34.7385 4.112 34.9025 3.988 35.0865 3.876C35.4545 3.564 35.8145 3.312 36.1665 3.12C36.5505 2.904 36.8625 2.796 37.1025 2.796C37.3185 2.796 37.5025 2.84 37.6545 2.928C37.8465 3.048 37.9425 3.228 37.9425 3.468C37.9425 3.684 37.8745 3.912 37.7385 4.152C37.6025 4.384 37.4145 4.612 37.1745 4.836C37.1425 4.868 37.0905 4.916 37.0185 4.98C36.9465 5.036 36.8545 5.112 36.7425 5.208C36.4385 5.464 36.2865 5.676 36.2865 5.844C36.2865 5.924 36.3225 6.004 36.3945 6.084C36.4665 6.164 36.5345 6.204 36.5985 6.204C36.9265 6.204 37.3265 6.108 37.7985 5.916C37.9265 5.86 38.0825 5.784 38.2665 5.688C38.4585 5.584 38.6785 5.452 38.9265 5.292C39.1265 5.164 39.2465 5.1 39.2865 5.1C39.3425 5.1 39.3945 5.124 39.4425 5.172C39.4905 5.22 39.5185 5.276 39.5265 5.34ZM37.4145 3.516C37.4145 3.476 37.3905 3.436 37.3425 3.396C37.2945 3.356 37.2385 3.332 37.1745 3.324C37.0065 3.3 36.7465 3.38 36.3945 3.564C36.1065 3.716 35.8705 3.876 35.6865 4.044C35.6305 4.1 35.5745 4.172 35.5185 4.26C35.4625 4.34 35.4225 4.396 35.3985 4.428C35.3665 4.5 35.3425 4.556 35.3265 4.596C35.3105 4.628 35.2865 4.668 35.2545 4.716C35.1905 4.804 35.1105 4.9 35.0145 5.004C34.9265 5.1 34.8545 5.172 34.7985 5.22C34.8465 5.292 34.8785 5.34 34.8945 5.364C34.9185 5.38 34.9745 5.412 35.0625 5.46L35.5065 5.316C35.6905 5.252 35.8785 5.156 36.0705 5.028C36.1345 4.988 36.1945 4.944 36.2505 4.896C36.3145 4.848 36.3745 4.804 36.4305 4.764C36.4865 4.716 36.5505 4.66 36.6225 4.596C36.7025 4.524 36.7785 4.448 36.8505 4.368C36.9225 4.288 36.9905 4.212 37.0545 4.14C37.1265 4.06 37.1865 3.984 37.2345 3.912C37.3545 3.736 37.4145 3.604 37.4145 3.516ZM34.4865 5.844L34.2945 5.652C34.1825 5.756 34.0945 5.86 34.0305 5.964C33.9665 6.06 33.9345 6.164 33.9345 6.276C33.9345 6.332 33.9825 6.364 34.0785 6.372C34.1825 6.38 34.2985 6.356 34.4265 6.3C34.5625 6.236 34.6705 6.156 34.7505 6.06L34.4865 5.844ZM45.0488 5.124C45.0728 5.204 44.8648 5.368 44.4248 5.616C44.3608 5.656 44.2728 5.704 44.1608 5.76C44.0488 5.816 43.9128 5.884 43.7528 5.964C43.5448 6.068 43.3768 6.152 43.2488 6.216C43.1208 6.28 43.0328 6.32 42.9848 6.336C42.6968 6.456 42.4408 6.516 42.2168 6.516C42.0248 6.516 41.8888 6.452 41.8088 6.324C41.7288 6.196 41.6888 6.052 41.6888 5.892C41.6888 5.78 41.7008 5.664 41.7248 5.544C41.7488 5.416 41.7768 5.284 41.8088 5.148C41.4168 5.26 40.9448 5.356 40.3928 5.436C40.3528 5.444 40.3008 5.448 40.2368 5.448C40.2128 5.44 40.1528 5.436 40.0568 5.436C39.8808 5.772 39.6648 6.124 39.4088 6.492L39.0488 7.08C38.9128 7.296 38.8008 7.404 38.7128 7.404C38.6008 7.404 38.5048 7.372 38.4248 7.308C38.3448 7.244 38.3048 7.156 38.3048 7.044C38.3048 6.972 38.4448 6.692 38.7248 6.204C38.9968 5.716 39.2248 5.404 39.4088 5.268L39.1688 5.016C39.0888 4.936 39.0488 4.836 39.0488 4.716C39.0488 4.676 39.0608 4.632 39.0848 4.584C39.1088 4.528 39.1408 4.48 39.1808 4.44C39.2208 4.392 39.2648 4.356 39.3128 4.332C39.3608 4.308 39.4088 4.3 39.4568 4.308C39.5048 4.324 39.5648 4.36 39.6368 4.416C39.7168 4.464 39.7768 4.5 39.8168 4.524L40.0928 4.044L40.4888 3.396C40.5208 3.356 40.6208 3.172 40.7888 2.844C40.9888 2.46 41.1528 2.268 41.2808 2.268C41.3848 2.268 41.4688 2.304 41.5328 2.376C41.5968 2.448 41.6168 2.532 41.5928 2.628C41.5688 2.732 41.5008 2.872 41.3888 3.048C41.2768 3.224 41.1688 3.396 41.0648 3.564L40.7768 4.068C40.5768 4.428 40.4488 4.652 40.3928 4.74L40.6808 4.764C40.9688 4.764 41.2528 4.716 41.5328 4.62L42.1928 4.332L42.9128 3.372C43.0168 3.244 43.1048 3.136 43.1768 3.048C43.2568 2.96 43.3288 2.892 43.3928 2.844C43.5688 2.7 43.7368 2.628 43.8968 2.628C43.9848 2.628 44.0688 2.672 44.1488 2.76C44.2368 2.84 44.2808 2.932 44.2808 3.036C44.2808 3.124 44.2328 3.244 44.1368 3.396C44.0488 3.54 43.9448 3.684 43.8248 3.828C43.6808 4.004 43.5168 4.164 43.3328 4.308C43.1568 4.452 42.9928 4.556 42.8408 4.62C42.6728 4.796 42.5368 4.976 42.4328 5.16C42.3368 5.344 42.2888 5.516 42.2888 5.676C42.2888 5.868 42.3448 5.964 42.4568 5.964C42.5048 5.964 42.5928 5.94 42.7208 5.892C42.8488 5.836 42.9968 5.768 43.1648 5.688C43.3328 5.6 43.5128 5.508 43.7048 5.412C43.8968 5.308 44.0848 5.208 44.2688 5.112C44.5968 4.952 44.7848 4.876 44.8328 4.884C44.9128 4.892 44.9728 4.932 45.0128 5.004L45.0488 5.124ZM50.7043 4.932C50.7043 5.108 50.3003 5.336 49.4923 5.616C49.3803 5.656 49.2203 5.712 49.0123 5.784C48.8123 5.848 48.5683 5.924 48.2803 6.012C48.1283 6.06 47.9723 6.108 47.8123 6.156C47.6603 6.204 47.5043 6.248 47.3443 6.288C47.0083 6.376 46.7763 6.42 46.6483 6.42C46.3443 6.42 46.1203 6.296 45.9763 6.048L45.6883 5.34L44.9443 6.228L44.5243 6.792C44.3723 6.992 44.2483 7.092 44.1523 7.092C44.0483 7.092 43.9643 7.04 43.9003 6.936C43.8283 6.84 43.7923 6.74 43.7923 6.636C43.7923 6.556 43.8443 6.436 43.9483 6.276C43.9803 6.22 44.0243 6.156 44.0803 6.084C44.1363 6.004 44.2083 5.908 44.2963 5.796L44.6323 5.388L45.2083 4.788L45.6043 4.356C45.6923 4.252 45.7643 4.168 45.8203 4.104C45.8843 4.04 45.9243 3.992 45.9403 3.96C45.9723 3.904 46.0203 3.788 46.0843 3.612C46.1403 3.436 46.1763 3.34 46.1923 3.324C46.3203 2.988 46.4563 2.82 46.6003 2.82C46.7603 2.82 46.9043 2.872 47.0323 2.976L47.2723 3.204C47.4163 3.156 47.5403 3.12 47.6443 3.096C47.7563 3.064 47.8523 3.04 47.9323 3.024C48.0123 3.008 48.0843 3 48.1483 3C48.2123 2.992 48.2803 2.988 48.3523 2.988C48.5443 2.988 48.6843 3.04 48.7723 3.144C48.8603 3.248 48.9043 3.376 48.9043 3.528C48.9043 3.696 48.8243 3.848 48.6643 3.984C48.5043 4.12 48.3603 4.188 48.2323 4.188C48.1283 4.18 48.0763 4.108 48.0763 3.972C48.0763 3.924 48.1083 3.868 48.1723 3.804C48.2443 3.74 48.2803 3.7 48.2803 3.684C48.3043 3.612 48.2643 3.564 48.1603 3.54C48.1043 3.532 48.0163 3.544 47.8963 3.576C47.7763 3.608 47.6483 3.652 47.5123 3.708C47.3843 3.756 47.2643 3.808 47.1523 3.864C47.0483 3.92 46.9843 3.964 46.9603 3.996L46.9123 4.284C46.8963 4.372 46.7883 4.564 46.5883 4.86C46.5003 4.996 46.4563 5.092 46.4563 5.148C46.4563 5.412 46.4803 5.596 46.5283 5.7C46.5763 5.796 46.6563 5.844 46.7683 5.844C46.8403 5.844 47.1123 5.784 47.5843 5.664L48.2443 5.484C48.4283 5.436 48.6603 5.368 48.9403 5.28C49.2283 5.184 49.5683 5.068 49.9603 4.932C50.2963 4.82 50.4763 4.764 50.5003 4.764C50.5963 4.764 50.6523 4.772 50.6683 4.788C50.6923 4.796 50.7043 4.844 50.7043 4.932ZM53.8481 5.244C53.8481 5.34 53.6481 5.528 53.2481 5.808C53.0481 5.944 52.8561 6.068 52.6721 6.18C52.4881 6.292 52.3161 6.388 52.1561 6.468C51.8441 6.62 51.5881 6.72 51.3881 6.768C51.2121 6.824 50.9841 6.852 50.7041 6.852C50.3921 6.852 50.1601 6.74 50.0081 6.516C49.8961 6.34 49.8401 6.148 49.8401 5.94C49.8401 5.668 49.9001 5.372 50.0201 5.052C50.1481 4.724 50.3601 4.356 50.6561 3.948C50.8881 3.628 51.1721 3.34 51.5081 3.084C51.9081 2.78 52.2641 2.628 52.5761 2.628C52.6721 2.628 52.7601 2.668 52.8401 2.748C52.9201 2.828 52.9601 2.924 52.9601 3.036C52.9601 3.348 52.8441 3.68 52.6121 4.032C52.4761 4.232 52.2641 4.484 51.9761 4.788C51.8641 4.9 51.7241 5.02 51.5561 5.148C51.3961 5.276 51.2041 5.412 50.9801 5.556L50.4401 5.892C50.4401 5.988 50.4721 6.08 50.5361 6.168C50.6001 6.256 50.6721 6.3 50.7521 6.3C50.9681 6.3 51.2081 6.252 51.4721 6.156C51.5921 6.108 51.7561 6.04 51.9641 5.952C52.1721 5.856 52.4441 5.704 52.7801 5.496C53.3641 5.136 53.6641 4.956 53.6801 4.956C53.7361 4.94 53.7801 4.968 53.8121 5.04C53.8441 5.104 53.8561 5.172 53.8481 5.244ZM52.4321 3.324C52.4401 3.244 52.4081 3.204 52.3361 3.204C52.2401 3.204 52.0881 3.292 51.8801 3.468C51.6721 3.636 51.4801 3.816 51.3041 4.008C51.1361 4.2 50.9841 4.404 50.8481 4.62C50.8321 4.644 50.7961 4.704 50.7401 4.8C50.6921 4.888 50.6241 5.012 50.5361 5.172C50.7041 5.124 50.8761 5.036 51.0521 4.908C51.2361 4.772 51.4201 4.612 51.6041 4.428C51.7001 4.34 51.7921 4.244 51.8801 4.14C51.9761 4.028 52.0681 3.912 52.1561 3.792C52.3241 3.568 52.4161 3.412 52.4321 3.324ZM60.8111 5.196C60.8111 5.268 60.6711 5.396 60.3911 5.58C60.2551 5.668 60.1151 5.752 59.9711 5.832C59.8351 5.912 59.6911 5.984 59.5391 6.048C59.3951 6.112 59.2471 6.172 59.0951 6.228C58.9431 6.284 58.7951 6.332 58.6511 6.372C58.5071 6.412 58.3711 6.444 58.2431 6.468C58.1231 6.492 58.0231 6.504 57.9431 6.504C57.4711 6.504 57.2351 6.268 57.2351 5.796C57.2351 5.636 57.3231 5.392 57.4991 5.064C57.5631 4.952 57.6231 4.836 57.6791 4.716C57.7431 4.596 57.8071 4.48 57.8711 4.368C57.6871 4.472 57.5111 4.588 57.3431 4.716C57.1751 4.836 56.9871 4.992 56.7791 5.184L55.9991 5.904C55.7351 6.144 55.5591 6.264 55.4711 6.264C55.3831 6.264 55.3031 6.224 55.2311 6.144C55.1591 6.064 55.1231 5.972 55.1231 5.868C55.1231 5.78 55.2551 5.584 55.5191 5.28C55.5591 5.24 55.6111 5.184 55.6751 5.112C55.7391 5.04 55.8231 4.952 55.9271 4.848C56.1271 4.632 56.2991 4.42 56.4431 4.212C56.5951 4.004 56.6951 3.824 56.7431 3.672C56.4871 3.8 56.1911 3.988 55.8551 4.236C55.6231 4.396 55.3991 4.568 55.1831 4.752C54.9751 4.928 54.7711 5.108 54.5711 5.292C54.4831 5.38 54.3711 5.492 54.2351 5.628C54.1071 5.756 53.9551 5.912 53.7791 6.096C53.1631 6.752 52.7991 7.072 52.6871 7.056C52.6071 7.056 52.5391 7.02 52.4831 6.948C52.4191 6.884 52.3871 6.812 52.3871 6.732C52.3871 6.668 52.5231 6.488 52.7951 6.192C52.8591 6.12 52.9271 6.048 52.9991 5.976C53.0711 5.904 53.1391 5.828 53.2031 5.748C53.5871 5.332 53.8511 5.032 53.9951 4.848C54.1311 4.688 54.2551 4.536 54.3671 4.392C54.4871 4.24 54.5951 4.092 54.6911 3.948C54.8191 3.772 54.9871 3.464 55.1951 3.024C55.3311 2.76 55.4391 2.632 55.5191 2.64C55.6071 2.64 55.6791 2.664 55.7351 2.712C55.7991 2.752 55.8271 2.828 55.8191 2.94C55.8191 2.98 55.8071 3.036 55.7831 3.108C55.7671 3.18 55.7391 3.26 55.6991 3.348C55.6671 3.436 55.6311 3.528 55.5911 3.624C55.5511 3.72 55.5071 3.804 55.4591 3.876L56.3951 3.276L56.9711 2.916C57.1711 2.788 57.2991 2.724 57.3551 2.724C57.4511 2.724 57.5311 2.776 57.5951 2.88C57.6591 2.984 57.6911 3.116 57.6911 3.276C57.6911 3.372 57.6591 3.516 57.5951 3.708C57.5391 3.876 57.5111 3.972 57.5111 3.996L57.9671 3.684C58.0311 3.636 58.0951 3.588 58.1591 3.54C58.2231 3.492 58.2831 3.44 58.3391 3.384C58.4911 3.232 58.6591 3.088 58.8431 2.952C59.0511 2.792 59.1911 2.72 59.2631 2.736C59.4791 2.784 59.5871 2.956 59.5871 3.252C59.5871 3.308 59.5111 3.416 59.3591 3.576C59.2231 3.728 59.1031 3.86 58.9991 3.972C58.9031 4.076 58.8271 4.16 58.7711 4.224C58.6831 4.336 58.5911 4.456 58.4951 4.584C58.3991 4.704 58.3071 4.832 58.2191 4.968C57.9791 5.344 57.8591 5.612 57.8591 5.772C57.8591 5.916 57.9311 5.988 58.0751 5.988C58.2191 5.988 58.4231 5.944 58.6871 5.856C58.7671 5.824 58.8631 5.788 58.9751 5.748C59.0871 5.708 59.2111 5.656 59.3471 5.592C59.4831 5.528 59.6191 5.464 59.7551 5.4C59.8911 5.336 60.0231 5.264 60.1511 5.184C60.4231 5.024 60.5751 4.944 60.6071 4.944C60.7431 4.944 60.8111 5.028 60.8111 5.196Z" fill="#091E53"></path></svg> 