<?xml version="1.0" encoding="UTF-8"?> <svg xmlns="http://www.w3.org/2000/svg" width="950" height="208" viewBox="0 0 950 208" fill="none"><path d="M186.6 6.4C186.6 7.86666 186.267 9.19999 185.6 10.4C184.933 11.4667 183.933 12 182.6 12C177.8 11.3333 173.4 10.8 169.4 10.4C165.4 9.86666 162.2 9.59999 159.8 9.59999C156.067 9.59999 151.8 9.53332 147 9.39999C142.333 9.26666 137.4 9.06666 132.2 8.79999C133.133 9.86666 134 11.2 134.8 12.8C135.733 14.4 136.667 16.1333 137.6 18C139.6 21.8667 140.4 24.6667 140 26.4C139.467 29.7333 137.8 31.4 135 31.4C134.067 31.2667 132 28.2 128.8 22.2C127.467 19.2667 126.2 17.8 125 17.8C122.467 17.8 118.467 21.7333 113 29.6L105.8 40.4C104.867 41.8667 103.933 43.6 103 45.6C102.067 47.6 101.133 49.7333 100.2 52C98.4667 56.2667 97.2667 59.1333 96.6 60.6L111.4 56.4C115.933 55.4667 120.867 55 126.2 55C128.733 55 131.2 55.4667 133.6 56.4C136 57.2 138.067 58.4 139.8 60C141.667 61.4667 143.133 63.2667 144.2 65.4C145.267 67.5333 145.8 69.8667 145.8 72.4C145.8 77.2 143.933 82.7333 140.2 89C137.933 93 134.933 97.1333 131.2 101.4C133.333 101.267 135.333 101.2 137.2 101.2C139.067 101.067 140.733 101 142.2 101H146.6C152.333 101 157.067 101.533 160.8 102.6C164.533 103.533 166.4 105.733 166.4 109.2C166.4 110.4 165.267 111.133 163 111.4C161.4 111.533 158.733 111.333 155 110.8C153.133 110.533 151.467 110.333 150 110.2C148.533 109.933 147.267 109.8 146.2 109.8C144.733 109.8 142.933 109.867 140.8 110C138.8 110 136.4 110.067 133.6 110.2C130.933 110.333 128.867 110.467 127.4 110.6C125.933 110.6 125.133 110.6 125 110.6C122.867 113 120.333 115.533 117.4 118.2C114.467 120.733 111.133 123.4 107.4 126.2C103.667 129 100.267 131.533 97.2 133.8C94.1333 135.933 91.2667 137.733 88.6 139.2C81.6667 143.333 76.7333 145.4 73.8 145.4C71 145.4 68.6667 144.867 66.8 143.8C64.9333 142.6 64 140.933 64 138.8C64 134.4 66.8 129.4 72.4 123.8C74.8 121.4 77.5333 119.067 80.6 116.8C83.6667 114.4 87.0667 112.067 90.8 109.8C92.1333 109 93.5333 108.267 95 107.6C96.4667 106.8 98.0667 106.067 99.8 105.4C102.2 104.333 104.333 103.467 106.2 102.8C108.2 102.133 109.933 101.667 111.4 101.4C113.267 101.267 114.867 101.133 116.2 101C117.667 100.867 118.8 100.733 119.6 100.6C121.467 99.1333 123.333 97.3333 125.2 95.2C127.067 93.0667 128.933 90.5333 130.8 87.6C134.8 81.8667 136.8 77.4667 136.8 74.4C136.8 71.3333 135.733 68.9333 133.6 67.2C130.667 64.6667 127.267 63.4 123.4 63.4C117.133 63.4 110.6 64.6 103.8 67C98.8667 68.7333 94.1333 71 89.6 73.8C86.4 78.4667 83.2667 83.4 80.2 88.6C77.1333 93.6667 74.1333 99.1333 71.2 105C65.4667 116.333 58.3333 127.067 49.8 137.2C39 150.133 29.8 156.6 22.2 156.6C16.4667 156.6 11.3333 154.467 6.8 150.2C2.26667 146.067 1.10269e-06 141.867 1.10269e-06 137.6C1.10269e-06 136.667 0.866668 135.4 2.6 133.8C4.33333 132.2 6.2 131.4 8.2 131.4C10.8667 131.533 14.1333 133.667 18 137.8C19.6 139.533 21.2667 142.067 23 145.4L26.6 145.8C29.1333 145.933 33.4 142.533 39.4 135.6C44.6 129.333 49.3333 122.733 53.6 115.8L62.8 100.6C64.6667 97.2667 66.2667 94.4667 67.6 92.2C68.9333 89.8 69.9333 87.8667 70.6 86.4C69.8 86.9333 68.8 88 67.6 89.6C66.4 91.2 65.3333 92.7333 64.4 94.2C62.6667 96.4667 61.1333 98.3333 59.8 99.8C58.6 101.133 57.5333 101.8 56.6 101.8C55.4 101.8 54.3333 101.4 53.4 100.6C52.4667 99.8 52 98.8 52 97.6C52 96.6667 52.8 94.6667 54.4 91.6C54.9333 90.6667 55.3333 89.8667 55.6 89.2C56 88.5333 56.2667 88.0667 56.4 87.8C51.4667 86.0667 46.9333 83 42.8 78.6C40.2667 76.2 38.0667 72.7333 36.2 68.2C34.3333 63.6667 33.4 58.4 33.4 52.4C33.4 46.8 35.2 41 38.8 35C42 29.6667 46.8 24.0667 53.2 18.2C56.6667 15.6667 61.8 13.1333 68.6 10.6C75.5333 8.06666 83 5.93332 91 4.19999C93 3.79999 95.2 3.46666 97.6 3.19999C100 2.79999 102.6 2.46666 105.4 2.19999L119.2 0.999993C122.667 0.599991 126.067 0.399989 129.4 0.399989C132.733 0.266658 135.733 0.133326 138.4 -5.72205e-06C141.333 -5.72205e-06 144.4 0.0666601 147.6 0.199992C150.933 0.199992 154.333 0.199992 157.8 0.199992C164.867 0.199992 171.4 0.799992 177.4 1.99999C183.533 2.93333 186.6 4.4 186.6 6.4ZM110.2 10.6C109.133 10.6 108 10.6667 106.8 10.8C105.6 10.8 104.333 10.8667 103 11C101.667 11.1333 99.9333 11.4 97.8 11.8C95.8 12.0667 93.3333 12.5333 90.4 13.2C87.4667 13.8667 84.6667 14.5333 82 15.2C79.3333 15.8667 76.7333 16.6667 74.2 17.6C71 18.6667 68.2 19.8667 65.8 21.2C63.4 22.4 61.3333 23.6667 59.6 25C57.3333 26.7333 55.2667 28.8 53.4 31.2C51.5333 33.4667 49.8667 35.8667 48.4 38.4C47.0667 40.8 46 43.2667 45.2 45.8C44.4 48.3333 44 50.6667 44 52.8C44 61.6 46.8 68.6 52.4 73.8C55.8667 77.1333 59.2 79 62.4 79.4C62.8 79.1333 63.3333 78.6667 64 78C64.8 77.3333 65.6667 76.6667 66.6 76C67.5333 75.2 68.4667 74.4 69.4 73.6C70.3333 72.8 71.2 72.2 72 71.8C73.6 70.7333 75.4667 69.7333 77.6 68.8C79.8667 67.7333 81.3333 67 82 66.6L97.6 36C99.3333 32.1333 102.133 27.4667 106 22C109.333 17.2 112.4 13.4 115.2 10.6H110.2ZM109 111.8C108.467 111.933 107.6 112.2 106.4 112.6C105.333 113 104.133 113.533 102.8 114.2C101.6 114.733 100.333 115.333 99 116C97.6667 116.667 96.4667 117.267 95.4 117.8C92.8667 119.267 90.6 120.667 88.6 122C86.6 123.2 84.8667 124.333 83.4 125.4C79.2667 128.333 77.0667 130.8 76.8 132.8C76.6667 133.2 76.6667 133.533 76.8 133.8C77.0667 134.067 77.2667 134.2 77.4 134.2C78.4667 134.733 81.5333 133.4 86.6 130.2C87.2667 129.8 88.6667 128.867 90.8 127.4C92.9333 125.8 95.8667 123.667 99.6 121C102.667 118.867 104.867 117.2 106.2 116C107.667 114.8 109.067 113.4 110.4 111.8H109ZM254.677 114.8C254.543 115.733 247.877 119.667 234.677 126.6C228.277 129.933 222.943 132.8 218.677 135.2C217.21 136.133 215.01 137.4 212.077 139C209.143 140.467 205.543 142.333 201.277 144.6C193.943 148.467 188.01 151.667 183.477 154.2C178.943 156.733 175.743 158.667 173.877 160C171.077 164 167.943 168.6 164.477 173.8C161.01 179.133 157.477 184.667 153.877 190.4C146.41 201.867 138.81 207.6 131.077 207.6C127.21 207.6 124.21 206.4 122.077 204C119.81 201.733 118.677 199.133 118.677 196.2C118.677 192.733 120.61 188.667 124.477 184C128.21 179.467 133.477 175.067 140.277 170.8C144.677 168.133 148.877 165.533 152.877 163C157.01 160.467 160.943 157.867 164.677 155.2C165.61 154.267 166.677 153 167.877 151.4C169.21 149.933 170.81 148.067 172.677 145.8C174.543 143.667 176.077 141.8 177.277 140.2C178.61 138.467 179.743 137.067 180.677 136C178.543 137.067 175.677 137.867 172.077 138.4C168.61 138.933 165.61 139.2 163.077 139.2C160.143 139.2 157.41 138.333 154.877 136.6C151.01 133.933 149.077 130.533 149.077 126.4C149.077 123.067 150.81 118.267 154.277 112C157.877 105.867 162.077 100.4 166.877 95.6C171.677 90.6667 176.01 86.6 179.877 83.4C184.677 79.6667 187.877 78 189.477 78.4C190.543 78.6667 191.41 78.9333 192.077 79.2C192.877 79.4667 193.41 79.6667 193.677 79.8C194.877 80.6 195.477 81.7333 195.477 83.2C195.477 85.7333 194.21 88.3333 191.677 91C190.61 92.0667 189.21 93.4 187.477 95C185.877 96.6 183.877 98.4 181.477 100.4C180.543 101.067 179.343 101.933 177.877 103C176.543 104.067 174.943 105.267 173.077 106.6C171.21 107.933 169.477 109.133 167.877 110.2C166.277 111.267 164.943 112.267 163.877 113.2C162.41 114.933 161.21 117 160.277 119.4C159.477 121.667 159.077 123.467 159.077 124.8C159.077 126.4 159.81 127.733 161.277 128.8C162.743 129.867 164.41 130.4 166.277 130.4C171.343 130.4 177.543 128.533 184.877 124.8C190.877 121.867 196.01 118.533 200.277 114.8C203.877 111.2 207.41 107.733 210.877 104.4C214.343 100.933 218.81 96.8 224.277 92L241.477 76.8C245.077 74 247.343 72.5333 248.277 72.4C249.743 72.1333 251.077 72.6667 252.277 74C253.61 75.2 254.277 76.5333 254.277 78C254.277 80.4 251.61 83.8667 246.277 88.4L237.877 95.6C236.143 97.2 234.543 98.6667 233.077 100C231.61 101.2 230.343 102.267 229.277 103.2C224.61 107.333 219.343 111.6 213.477 116C212.143 117.067 210.743 118.267 209.277 119.6C207.943 120.933 206.477 122.333 204.877 123.8C202.877 125.667 201.21 127.2 199.877 128.4C198.677 129.6 197.743 130.533 197.077 131.2L191.677 136.6C191.143 137.133 190.543 137.867 189.877 138.8C189.343 139.6 188.677 140.533 187.877 141.6C191.61 139.6 194.877 137.867 197.677 136.4C200.61 134.933 203.077 133.667 205.077 132.6C207.077 131.533 209.077 130.533 211.077 129.6C213.077 128.533 215.077 127.467 217.077 126.4L237.877 115.6C246.143 111.333 250.677 109.2 251.477 109.2C252.543 109.2 253.41 109.867 254.077 111.2C254.743 112.4 254.943 113.6 254.677 114.8ZM156.277 170.8C153.077 172.533 149.943 174.267 146.877 176C143.81 177.733 141.21 179.467 139.077 181.2C134.81 184.533 131.877 187.2 130.277 189.2C128.677 191.333 127.877 193.067 127.877 194.4C127.877 195.467 128.61 196.533 130.077 197.6C130.743 198.133 131.477 198.4 132.277 198.4C134.277 198.4 136.743 197.067 139.677 194.4C141.41 192.667 143.543 190.2 146.077 187C148.477 183.933 150.477 181.2 152.077 178.8C154.477 175.2 155.877 172.533 156.277 170.8ZM326.72 114C326.72 115.467 324.854 117 321.12 118.6L305.92 125.2C302.054 127.067 297.254 129.867 291.52 133.6C287.787 135.867 284.72 137.733 282.32 139.2C279.92 140.667 278.187 141.733 277.12 142.4C272.854 146.667 267.854 151.867 262.12 158C259.32 161.2 256.854 164.067 254.72 166.6C252.72 169.133 250.987 171.333 249.52 173.2C245.92 177.733 242.254 182.6 238.52 187.8C234.654 192.2 231.52 194.4 229.12 194.4C226.72 194.133 224.787 193.267 223.32 191.8C221.854 190.467 221.12 188.667 221.12 186.4C221.12 185.333 221.587 184 222.52 182.4C223.32 180.8 224.454 179.067 225.92 177.2C227.254 175.467 228.787 173.6 230.52 171.6C232.254 169.733 234.054 168 235.92 166.4L258.72 145.6C260.587 143.2 262.187 141 263.52 139C264.987 137 266.054 135.2 266.72 133.6C260.854 137.867 255.12 140 249.52 140C245.787 140 242.787 138.8 240.52 136.4C238.254 134 237.12 131.333 237.12 128.4C237.12 125.067 238.454 121.067 241.12 116.4C242.054 114.8 243.587 112.933 245.72 110.8L250.72 106C252.854 102.933 254.987 100.067 257.12 97.4C259.387 94.7333 262.32 91.7333 265.92 88.4C267.92 86.5333 270.654 84.7333 274.12 83C277.587 81.1333 280.854 79.8667 283.92 79.2C285.787 77.8667 287.387 76.8 288.72 76C290.187 75.2 291.254 74.6 291.92 74.2C295.52 72.2 298.454 71.2 300.72 71.2C303.254 71.2 305.254 72.5333 306.72 75.2C308.32 77.8667 309.12 81.0667 309.12 84.8C309.12 88.4 307.854 92.4 305.32 96.8C302.787 101.067 299.387 105.6 295.12 110.4C288.854 117.067 283.92 121.733 280.32 124.4C280.32 126.133 280.587 127.6 281.12 128.8L303.52 117.2C307.787 115.2 311.72 113.533 315.32 112.2C319.054 110.733 321.654 110 323.12 110C325.52 110 326.72 111.333 326.72 114ZM299.52 84.8C299.52 84.1333 299.254 83.4667 298.72 82.8C298.32 82 297.854 81.6667 297.32 81.8C296.787 81.9333 295.92 82.3333 294.72 83C293.654 83.5333 292.254 84.4667 290.52 85.8C289.454 86.6 288.387 87.3333 287.32 88C286.387 88.6667 285.387 89.3333 284.32 90L283.52 93.6C283.12 94 280.92 95.6667 276.92 98.6C273.854 100.867 271.654 102.933 270.32 104.8C267.254 109.067 265.387 112.8 264.72 116C264.587 117.333 264.787 118.6 265.32 119.8C265.854 121 266.587 122 267.52 122.8C268.454 122.267 269.454 121.6 270.52 120.8C271.72 119.867 273.054 118.8 274.52 117.6C275.987 116.267 277.72 114.6 279.72 112.6C281.854 110.6 284.32 108.133 287.12 105.2C290.054 102.4 292.787 99 295.32 95C298.12 90.8667 299.52 87.4667 299.52 84.8ZM261.12 127.2C260.587 126.533 259.854 125.6 258.92 124.4C258.12 123.067 257.654 122.267 257.52 122C256.187 119.467 255.52 117.2 255.52 115.2L249.12 121.2C248.32 122.533 247.787 123.867 247.52 125.2C247.387 126.533 247.387 127.6 247.52 128.4C247.654 130.267 248.454 131.333 249.92 131.6C250.454 131.733 251.187 131.733 252.12 131.6C253.187 131.333 254.254 131 255.32 130.6C256.387 130.2 257.454 129.733 258.52 129.2C259.587 128.533 260.454 127.867 261.12 127.2ZM380.72 118.8C380.72 120.4 377.387 123.533 370.72 128.2C367.387 130.467 364.187 132.533 361.12 134.4C358.054 136.267 355.187 137.867 352.52 139.2C347.32 141.733 343.054 143.4 339.72 144.2C336.787 145.133 332.987 145.6 328.32 145.6C323.12 145.6 319.254 143.733 316.72 140C314.854 137.067 313.92 133.867 313.92 130.4C313.92 125.867 314.92 120.933 316.92 115.6C319.054 110.133 322.587 104 327.52 97.2C331.387 91.8667 336.12 87.0667 341.72 82.8C348.387 77.7333 354.32 75.2 359.52 75.2C361.12 75.2 362.587 75.8667 363.92 77.2C365.254 78.5333 365.92 80.1333 365.92 82C365.92 87.2 363.987 92.7333 360.12 98.6C357.854 101.933 354.32 106.133 349.52 111.2C347.654 113.067 345.32 115.067 342.52 117.2C339.854 119.333 336.654 121.6 332.92 124L323.92 129.6C323.92 131.2 324.454 132.733 325.52 134.2C326.587 135.667 327.787 136.4 329.12 136.4C332.72 136.4 336.72 135.6 341.12 134C343.12 133.2 345.854 132.067 349.32 130.6C352.787 129 357.32 126.467 362.92 123C372.654 117 377.654 114 377.92 114C378.854 113.733 379.587 114.2 380.12 115.4C380.654 116.467 380.854 117.6 380.72 118.8ZM357.12 86.8C357.254 85.4667 356.72 84.8 355.52 84.8C353.92 84.8 351.387 86.2667 347.92 89.2C344.454 92 341.254 95 338.32 98.2C335.52 101.4 332.987 104.8 330.72 108.4C330.454 108.8 329.854 109.8 328.92 111.4C328.12 112.867 326.987 114.933 325.52 117.6C328.32 116.8 331.187 115.333 334.12 113.2C337.187 110.933 340.254 108.267 343.32 105.2C344.92 103.733 346.454 102.133 347.92 100.4C349.52 98.5333 351.054 96.6 352.52 94.6C355.32 90.8667 356.854 88.2667 357.12 86.8ZM544.77 123.6C544.77 125.333 539.837 128.533 529.97 133.2C525.037 135.467 520.637 137.4 516.77 139C513.037 140.6 509.704 141.733 506.77 142.4C504.504 142.933 502.637 143.4 501.17 143.8C499.704 144.067 498.437 144.267 497.37 144.4C496.304 144.533 495.304 144.6 494.37 144.6C493.437 144.733 492.437 144.8 491.37 144.8C487.904 144.8 484.437 143.867 480.97 142C476.837 139.867 474.77 137.2 474.77 134C474.637 133.067 474.57 132.267 474.57 131.6C474.57 130.933 474.57 130.333 474.57 129.8C474.57 128.733 474.637 128 474.77 127.6C471.97 129.867 466.97 132.667 459.77 136C451.37 140 445.37 142 441.77 142C439.77 142 437.97 141.6 436.37 140.8C434.904 140 433.637 139 432.57 137.8C431.504 136.6 430.637 135.333 429.97 134C429.437 132.533 429.17 131.2 429.17 130C429.17 128.533 429.304 127.267 429.57 126.2C429.97 125 430.37 123.867 430.77 122.8L415.37 130C412.037 131.467 408.97 132.8 406.17 134C403.37 135.2 400.837 136.133 398.57 136.8C392.304 138.933 387.17 140 383.17 140C377.304 140 373.17 138.733 370.77 136.2C369.17 134.467 368.37 132.133 368.37 129.2C368.37 124.4 370.837 120 375.77 116C380.704 112 385.237 110 389.37 110C391.237 110 392.637 110.467 393.57 111.4C394.504 112.333 394.97 113.467 394.97 114.8C394.837 115.6 394.704 116.4 394.57 117.2C394.57 118 394.437 118.8 394.17 119.6C392.97 123.467 392.17 126.4 391.77 128.4C393.904 128.4 397.17 127.533 401.57 125.8L415.37 120.2L427.97 115C430.104 114.067 431.97 113.133 433.57 112.2C435.17 111.267 436.637 110.267 437.97 109.2C440.504 106.267 442.704 103.8 444.57 101.8C446.437 99.8 448.037 98.1333 449.37 96.8C452.037 94.1333 454.77 91.6 457.57 89.2C460.37 86.6667 463.304 84.2667 466.37 82C469.57 79.6 473.704 77.0667 478.77 74.4C484.237 71.4667 488.104 70 490.37 70C493.57 70 495.17 72 495.17 76C495.17 79.0667 493.104 82.8667 488.97 87.4C485.637 91.1333 481.57 94.6667 476.77 98C473.837 100 471.237 101.733 468.97 103.2C466.837 104.667 465.037 105.867 463.57 106.8C461.304 108.133 458.904 109.467 456.37 110.8C453.97 112.133 451.437 113.467 448.77 114.8C445.837 117.2 443.504 119.533 441.77 121.8C440.17 123.933 439.37 125.867 439.37 127.6C439.37 128.8 439.704 129.933 440.37 131C441.037 131.933 442.037 132.4 443.37 132.4C445.77 132.4 449.17 131.467 453.57 129.6L464.37 124C467.17 122.667 470.437 120.667 474.17 118C475.504 117.067 476.837 116.133 478.17 115.2C479.504 114.133 480.904 113.067 482.37 112C483.437 110.667 484.77 109.267 486.37 107.8C487.97 106.2 489.77 104.467 491.77 102.6C493.77 100.733 496.037 98.6667 498.57 96.4C501.104 94.1333 503.904 91.6667 506.97 89L517.77 79.6C522.304 76.1333 525.704 74.4 527.97 74.4C531.17 74.4 532.77 75.7333 532.77 78.4C532.77 81.6 531.17 85.0667 527.97 88.8C524.904 92.5333 520.77 96.5333 515.57 100.8C514.237 101.867 512.504 103.2 510.37 104.8C508.237 106.4 505.704 108.267 502.77 110.4C501.304 111.467 499.57 112.733 497.57 114.2C495.57 115.533 493.437 116.933 491.17 118.4C489.704 119.867 488.437 121.733 487.37 124C486.437 126.133 485.97 128.133 485.97 130C485.97 131.467 486.57 132.867 487.77 134.2C489.104 135.4 490.704 136 492.57 136C494.57 136 496.97 135.733 499.77 135.2C502.57 134.667 505.237 134 507.77 133.2C510.037 132.533 512.504 131.667 515.17 130.6C517.97 129.4 521.037 128.067 524.37 126.6C535.437 121.667 541.237 119.2 541.77 119.2C543.237 119.2 544.104 119.467 544.37 120C544.637 120.533 544.77 121.733 544.77 123.6ZM694.317 120C694.051 121.2 691.851 123.267 687.717 126.2C685.584 127.667 683.384 129.133 681.117 130.6C678.851 132.067 676.517 133.467 674.117 134.8C671.851 136.133 669.384 137.333 666.717 138.4C664.184 139.467 661.584 140.533 658.917 141.6C653.317 143.467 649.184 144.4 646.517 144.4C639.984 144.4 636.717 141.067 636.717 134.4C636.717 132.133 638.051 128.533 640.717 123.6C641.917 121.6 644.584 117.333 648.717 110.8L652.717 104.8C655.651 100.667 657.117 97.8667 657.117 96.4C657.117 95.0667 656.451 94.4 655.117 94.4C653.117 94.4 650.584 95.2667 647.517 97C644.451 98.6 641.384 100.533 638.317 102.8C636.584 104.133 634.851 105.667 633.117 107.4C631.517 109 630.051 110.533 628.717 112L613.717 135.4C610.651 139.933 607.584 144.467 604.517 149C601.584 153.533 598.584 158.133 595.517 162.8L573.917 194.4C568.051 203.2 564.317 207.6 562.717 207.6C561.384 207.6 560.184 207.267 559.117 206.6C557.917 206.067 557.317 205.2 557.317 204C557.317 203.333 558.251 201.333 560.117 198C561.851 194.8 563.851 191.4 566.117 187.8C567.584 185.533 569.184 183 570.917 180.2C572.651 177.533 574.651 174.533 576.917 171.2L591.317 150L614.717 116.4C614.451 115.867 614.851 113.067 615.917 108C616.184 106.267 618.984 102.933 624.317 98L633.517 89.2L650.317 72.8L660.117 62.4C663.451 58.6667 665.784 56.6667 667.117 56.4C668.584 56 669.717 56.6667 670.517 58.4C671.451 60.1333 671.917 62 671.917 64C671.917 65.2 670.517 67.0667 667.717 69.6L661.117 75.6L650.717 86.6L654.317 86C656.984 85.4667 659.184 85.2 660.917 85.2C662.651 85.2 664.117 86.0667 665.317 87.8C666.651 89.4 667.317 91.3333 667.317 93.6C667.317 95.2 666.784 97.2 665.717 99.6C664.651 102 663.317 104.533 661.717 107.2C660.117 109.867 658.317 112.667 656.317 115.6C654.451 118.4 652.651 121.067 650.917 123.6C647.984 127.867 646.517 130.8 646.517 132.4C646.517 134.267 647.984 135.2 650.917 135.2C652.917 135.2 656.651 134 662.117 131.6L670.517 127.6C672.517 126.667 675.717 124.867 680.117 122.2C687.051 118.067 690.717 116 691.117 116C693.251 115.6 694.317 116.933 694.317 120ZM778.55 120.4C778.55 121.6 775.35 124.4 768.95 128.8C762.417 133.067 756.55 136.267 751.35 138.4C747.217 140.133 743.083 141.6 738.95 142.8C734.817 143.867 731.35 144.4 728.55 144.4C725.35 144.4 722.35 143.6 719.55 142C716.883 140.4 714.55 138.267 712.55 135.6L699.95 143.4C695.417 145.667 691.083 146.8 686.95 146.8C682.95 146.8 679.95 145.867 677.95 144C675.95 142.133 674.95 140 674.95 137.6C674.95 134.4 676.15 130.4 678.55 125.6C681.083 120.8 684.55 115.733 688.95 110.4C691.483 107.2 693.95 104.467 696.35 102.2C698.75 99.9333 701.483 97.8667 704.55 96C710.683 90.8 716.683 86.6 722.55 83.4C728.95 79.8 734.15 78 738.15 78C741.75 78 744.817 78.7333 747.35 80.2C750.55 82.2 752.15 85.2 752.15 89.2C752.15 92.8 751.017 96.6 748.75 100.6C746.483 104.467 743.35 108.267 739.35 112C738.817 112.533 737.95 113.333 736.75 114.4C735.55 115.333 734.017 116.6 732.15 118.2C727.083 122.467 724.55 126 724.55 128.8C724.55 130.133 725.15 131.467 726.35 132.8C727.55 134.133 728.683 134.8 729.75 134.8C735.217 134.8 741.883 133.2 749.75 130C751.883 129.067 754.483 127.8 757.55 126.2C760.75 124.467 764.417 122.267 768.55 119.6C771.883 117.467 773.883 116.4 774.55 116.4C775.483 116.4 776.35 116.8 777.15 117.6C777.95 118.4 778.417 119.333 778.55 120.4ZM743.35 90C743.35 89.3333 742.95 88.6667 742.15 88C741.35 87.3333 740.417 86.9333 739.35 86.8C736.55 86.4 732.217 87.7333 726.35 90.8C721.55 93.3333 717.617 96 714.55 98.8C713.617 99.7333 712.683 100.933 711.75 102.4C710.817 103.733 710.15 104.667 709.75 105.2C709.217 106.4 708.817 107.333 708.55 108C708.283 108.533 707.883 109.2 707.35 110C706.283 111.467 704.95 113.067 703.35 114.8C701.883 116.4 700.683 117.6 699.75 118.4C700.55 119.6 701.083 120.4 701.35 120.8C701.75 121.067 702.683 121.6 704.15 122.4L711.55 120C714.617 118.933 717.75 117.333 720.95 115.2C722.017 114.533 723.017 113.8 723.95 113C725.017 112.2 726.017 111.467 726.95 110.8C727.883 110 728.95 109.067 730.15 108C731.483 106.8 732.75 105.533 733.95 104.2C735.15 102.867 736.283 101.6 737.35 100.4C738.55 99.0667 739.55 97.8 740.35 96.6C742.35 93.6667 743.35 91.4667 743.35 90ZM694.55 128.8L691.35 125.6C689.483 127.333 688.017 129.067 686.95 130.8C685.883 132.4 685.35 134.133 685.35 136C685.35 136.933 686.15 137.467 687.75 137.6C689.483 137.733 691.417 137.333 693.55 136.4C695.817 135.333 697.617 134 698.95 132.4L694.55 128.8ZM857.189 114C857.189 115.467 855.322 117 851.589 118.6L836.389 125.2C832.522 127.067 827.722 129.867 821.989 133.6C818.256 135.867 815.189 137.733 812.789 139.2C810.389 140.667 808.656 141.733 807.589 142.4C803.322 146.667 798.322 151.867 792.589 158C789.789 161.2 787.322 164.067 785.189 166.6C783.189 169.133 781.456 171.333 779.989 173.2C776.389 177.733 772.722 182.6 768.989 187.8C765.122 192.2 761.989 194.4 759.589 194.4C757.189 194.133 755.256 193.267 753.789 191.8C752.322 190.467 751.589 188.667 751.589 186.4C751.589 185.333 752.056 184 752.989 182.4C753.789 180.8 754.922 179.067 756.389 177.2C757.722 175.467 759.256 173.6 760.989 171.6C762.722 169.733 764.522 168 766.389 166.4L789.189 145.6C791.056 143.2 792.656 141 793.989 139C795.456 137 796.522 135.2 797.189 133.6C791.322 137.867 785.589 140 779.989 140C776.256 140 773.256 138.8 770.989 136.4C768.722 134 767.589 131.333 767.589 128.4C767.589 125.067 768.922 121.067 771.589 116.4C772.522 114.8 774.056 112.933 776.189 110.8L781.189 106C783.322 102.933 785.456 100.067 787.589 97.4C789.856 94.7333 792.789 91.7333 796.389 88.4C798.389 86.5333 801.122 84.7333 804.589 83C808.056 81.1333 811.322 79.8667 814.389 79.2C816.256 77.8667 817.856 76.8 819.189 76C820.656 75.2 821.722 74.6 822.389 74.2C825.989 72.2 828.922 71.2 831.189 71.2C833.722 71.2 835.722 72.5333 837.189 75.2C838.789 77.8667 839.589 81.0667 839.589 84.8C839.589 88.4 838.322 92.4 835.789 96.8C833.256 101.067 829.856 105.6 825.589 110.4C819.322 117.067 814.389 121.733 810.789 124.4C810.789 126.133 811.056 127.6 811.589 128.8L833.989 117.2C838.256 115.2 842.189 113.533 845.789 112.2C849.522 110.733 852.122 110 853.589 110C855.989 110 857.189 111.333 857.189 114ZM829.989 84.8C829.989 84.1333 829.722 83.4667 829.189 82.8C828.789 82 828.322 81.6667 827.789 81.8C827.256 81.9333 826.389 82.3333 825.189 83C824.122 83.5333 822.722 84.4667 820.989 85.8C819.922 86.6 818.856 87.3333 817.789 88C816.856 88.6667 815.856 89.3333 814.789 90L813.989 93.6C813.589 94 811.389 95.6667 807.389 98.6C804.322 100.867 802.122 102.933 800.789 104.8C797.722 109.067 795.856 112.8 795.189 116C795.056 117.333 795.256 118.6 795.789 119.8C796.322 121 797.056 122 797.989 122.8C798.922 122.267 799.922 121.6 800.989 120.8C802.189 119.867 803.522 118.8 804.989 117.6C806.456 116.267 808.189 114.6 810.189 112.6C812.322 110.6 814.789 108.133 817.589 105.2C820.522 102.4 823.256 99 825.789 95C828.589 90.8667 829.989 87.4667 829.989 84.8ZM791.589 127.2C791.056 126.533 790.322 125.6 789.389 124.4C788.589 123.067 788.122 122.267 787.989 122C786.656 119.467 785.989 117.2 785.989 115.2L779.589 121.2C778.789 122.533 778.256 123.867 777.989 125.2C777.856 126.533 777.856 127.6 777.989 128.4C778.122 130.267 778.922 131.333 780.389 131.6C780.922 131.733 781.656 131.733 782.589 131.6C783.656 131.333 784.722 131 785.789 130.6C786.856 130.2 787.922 129.733 788.989 129.2C790.056 128.533 790.922 127.867 791.589 127.2ZM949.789 116.4C949.789 117.733 946.856 120.4 940.989 124.4C936.056 127.733 929.989 131.267 922.789 135C919.322 136.867 916.122 138.467 913.189 139.8C910.256 141.133 907.522 142.267 904.989 143.2C898.722 145.6 893.589 146.8 889.589 146.8C886.789 146.8 884.656 146 883.189 144.4C881.856 142.8 881.189 140.8 881.189 138.4C881.189 137.733 881.322 136.733 881.589 135.4C881.989 134.067 882.456 132.6 882.989 131C883.656 129.267 884.322 127.6 884.989 126C885.789 124.267 886.589 122.667 887.389 121.2C888.189 119.867 889.389 118.133 890.989 116C892.589 113.867 893.922 112.133 894.989 110.8C893.389 111.2 890.722 111.4 886.989 111.4C885.122 111.4 883.589 111.4 882.389 111.4C881.189 111.4 880.256 111.467 879.589 111.6V116.8C879.589 119.6 878.122 123.067 875.189 127.2C872.122 131.467 868.922 134.667 865.589 136.8C863.189 138.4 860.389 140 857.189 141.6C854.122 143.2 851.722 144 849.989 144C847.722 144 845.589 143.133 843.589 141.4C841.722 139.533 840.789 137.6 840.789 135.6C840.789 133.067 841.589 129.867 843.189 126C844.122 124.133 845.122 122.2 846.189 120.2C847.389 118.2 848.722 116.133 850.189 114C851.656 111.867 852.989 110 854.189 108.4C855.522 106.8 856.656 105.467 857.589 104.4C859.189 102.533 860.856 100.6 862.589 98.6C864.456 96.6 866.322 94.6667 868.189 92.8C871.922 89.3333 875.122 86.3333 877.789 83.8C880.456 81.2667 882.722 79.2667 884.589 77.8C890.456 72.8667 894.722 70.4 897.389 70.4C898.722 70.4 899.722 70.7333 900.389 71.4C901.189 71.9333 901.589 73.2 901.589 75.2C901.589 76.2667 901.189 77.4 900.389 78.6C899.722 79.6667 898.789 80.8 897.589 82C896.389 83.2 895.056 84.4 893.589 85.6C892.256 86.8 890.989 88 889.789 89.2L879.189 101.6C880.122 102.267 881.389 102.6 882.989 102.6C883.522 102.6 884.256 102.6 885.189 102.6C886.256 102.467 887.256 102.4 888.189 102.4C889.256 102.267 890.122 102.2 890.789 102.2C891.589 102.067 892.122 102 892.389 102C895.189 102 897.989 101.667 900.789 101C903.722 100.2 906.256 99.2 908.389 98C912.522 93.6 915.856 90.2667 918.389 88C920.922 85.6 923.456 83.5333 925.989 81.8C928.522 79.9333 930.856 78.4667 932.989 77.4C935.256 76.2 937.122 75.6 938.589 75.6C941.922 75.6 943.589 77.4 943.589 81C943.589 83 942.389 85.1333 939.989 87.4C937.722 89.6667 934.589 92 930.589 94.4L914.189 104L906.789 111.2C905.189 112.667 903.722 114.133 902.389 115.6C901.189 117.067 900.056 118.467 898.989 119.8C898.056 121.133 897.122 122.6 896.189 124.2C895.389 125.667 894.656 127.133 893.989 128.6C893.456 129.933 892.989 131.2 892.589 132.4C892.322 133.6 892.189 134.533 892.189 135.2C892.189 136.267 892.589 136.933 893.389 137.2C894.589 137.333 897.922 136.467 903.389 134.6C907.256 133.133 911.989 131.067 917.589 128.4C919.322 127.6 921.589 126.4 924.389 124.8C927.322 123.067 930.856 120.933 934.989 118.4C941.522 114.4 945.322 112.4 946.389 112.4C947.856 112.4 948.789 112.6 949.189 113C949.589 113.4 949.789 114.533 949.789 116.4ZM870.789 116.8C870.789 115.6 870.322 114.8 869.389 114.4C868.589 113.867 866.722 113.2 863.789 112.4L859.389 116.6C857.789 118.2 856.522 119.733 855.589 121.2C853.989 123.6 852.789 125.8 851.989 127.8C851.189 129.667 850.922 131.333 851.189 132.8L852.389 134C854.789 134.267 858.389 132.333 863.189 128.2C868.256 123.933 870.789 120.133 870.789 116.8Z" fill="#091E53"></path></svg> 